# This file uses centimeters as units for non-parametric coordinates.

mtllib fence border.mtl
g default
v 2.094082 2.637920 -1.753121
v 2.569978 2.637920 -1.753121
v 2.094082 4.094358 -1.753121
v 2.586858 4.095530 -1.748243
v 2.094082 4.094358 -2.229017
v 2.586858 4.095530 -2.224139
v 2.094082 2.637920 -2.229017
v 2.569978 2.637920 -2.229017
v 2.586858 3.617483 -1.748243
v 2.586858 3.622593 -2.224139
v 2.934799 3.620807 -1.743365
v 2.934799 4.096702 -1.743365
v 2.934799 4.096702 -2.219260
v 2.934799 3.620807 -2.219260
v 2.094082 3.139679 -2.229017
v 2.094082 3.140637 -1.753121
v 1.546689 2.637920 -2.229017
v 1.546689 2.637920 -1.753121
v 1.546689 3.140637 -1.753121
v 1.546689 3.139679 -2.229017
v 1.998684 3.139679 -2.229017
v 1.982602 3.140637 -1.753121
v 1.998684 3.595551 -2.229017
v 1.982602 3.596510 -1.753121
v 1.546689 3.595551 -2.229017
v 1.546689 3.596510 -1.753121
v 1.087076 3.139679 -2.229017
v 1.087076 3.140637 -1.753121
v 1.087076 3.596510 -1.753121
v 1.087076 3.595551 -2.229017
v 1.546689 4.032180 -2.229017
v 1.546689 4.033138 -1.753121
v 1.087076 4.032180 -2.229017
v 1.087076 4.033138 -1.753121
v 0.729959 3.595551 -2.229017
v 0.729959 3.596510 -1.753121
v 0.837983 4.033138 -1.753121
v 0.837983 4.032180 -2.229017
v 3.282739 4.095530 -2.224139
v 3.775515 4.094358 -2.229017
v 3.775515 4.094358 -1.753121
v 3.282739 4.095530 -1.748243
v 2.934799 4.096702 -1.743365
v 2.934799 4.096702 -2.219260
v 3.775515 3.139679 -2.229017
v 3.775515 3.140637 -1.753121
v 4.322908 2.637920 -2.229017
v 4.322908 2.637920 -1.753121
v 4.322908 3.140637 -1.753121
v 4.322908 3.139679 -2.229017
v 4.782521 3.596510 -1.753121
v 4.782521 3.140637 -1.753121
v 3.775515 2.637920 -1.753121
v 3.299620 2.637920 -1.753121
v 3.282739 3.617483 -1.748243
v 2.934799 3.620807 -1.743365
v 3.886995 3.140637 -1.753121
v 3.886995 3.596510 -1.753121
v 4.322908 3.596510 -1.753121
v 4.322908 4.033138 -1.753121
v 4.782521 4.033138 -1.753121
v 5.031614 4.033138 -1.753121
v 5.139638 3.596510 -1.753121
v 3.870913 3.139679 -2.229017
v 3.870913 3.595551 -2.229017
v 4.322908 3.595551 -2.229017
v 4.782521 3.139679 -2.229017
v 4.782521 3.595551 -2.229017
v 4.322908 4.032180 -2.229017
v 4.782521 4.032180 -2.229017
v 5.031614 4.032180 -2.229017
v 2.934799 3.620807 -2.219260
v 3.282739 3.622593 -2.224139
v 3.299620 2.637920 -2.229017
v 3.775515 2.637920 -2.229017
v 5.139638 3.595551 -2.229017
v 3.775515 4.094358 -1.772924
v 3.775515 3.140597 -1.772924
v 3.886325 3.140597 -1.772924
v 3.886325 3.596470 -1.772924
v 4.322908 3.596470 -1.772924
v 4.322908 4.033098 -1.772924
v 5.031614 4.033092 -1.775801
v 5.139638 3.596464 -1.775801
v 2.094082 4.094358 -1.771868
v 2.094082 3.140599 -1.771869
v 1.983236 3.140599 -1.771869
v 1.983236 3.596472 -1.771869
v 1.546689 3.596472 -1.771869
v 1.546689 4.033100 -1.771869
vt 0.005371 0.289715
vt 0.003978 0.012971
vt 0.238011 0.013207
vt 0.241117 0.289715
vt 0.240113 0.484895
vt 0.005223 0.484683
vt 0.003978 0.012971
vt 0.238011 0.013207
vt 0.240113 0.484895
vt 0.005223 0.484684
vt 0.953445 0.131639
vt 0.821833 0.131666
vt 0.821929 0.002951
vt 0.953829 0.001525
vt 0.177599 0.777611
vt 0.176681 0.575844
vt 0.380069 0.575844
vt 0.380072 0.354638
vt 0.627115 0.357391
vt 0.833912 0.356533
vt 0.841263 0.787342
vt 0.995044 0.787076
vt 0.995039 0.996443
vt 0.841259 0.998501
vt 0.620262 0.997130
vt 0.621118 0.580127
vt 0.576102 0.579270
vt 0.575920 0.779445
vt 0.383744 0.783116
vt 0.383252 0.973099
vt 0.189528 0.973099
vt 0.067578 0.972242
vt 0.017828 0.779447
vt 0.962742 0.140732
vt 0.962742 0.006710
vt 0.989609 0.006710
vt 0.994138 0.140732
vt 0.821929 0.002951
vt 0.953828 0.001525
vt 0.953445 0.131639
vt 0.821833 0.131666
vt 0.821929 0.002951
vt 0.953829 0.001525
vt 0.953445 0.131639
vt 0.821833 0.131666
vt 0.953445 0.131639
vt 0.821833 0.131666
vt 0.821929 0.002951
vt 0.953829 0.001525
vt 0.852152 0.343557
vt 0.663057 0.343557
vt 0.663057 0.147763
vt 0.852152 0.147763
vt 0.954634 0.147763
vt 0.954634 0.343557
vt 0.821929 0.002951
vt 0.953829 0.001525
vt 0.953445 0.131639
vt 0.821833 0.131666
vt 0.774851 0.057142
vt 0.763784 0.057142
vt 0.763784 0.046628
vt 0.752900 0.046628
vt 0.752900 0.035650
vt 0.750602 0.035650
vt 0.750602 0.058639
vt 0.738736 0.058667
vt 0.730356 0.058696
vt 0.730356 0.047236
vt 0.738735 0.047279
vt 0.739143 0.023568
vt 0.750602 0.023568
vt 0.763784 0.023568
vt 0.763784 0.035650
vt 0.774851 0.035650
vt 0.774851 0.046628
vt 0.783451 0.046628
vt 0.780849 0.057142
vt 0.307143 0.061939
vt 0.563728 0.062471
vt 0.563699 0.304983
vt 0.307114 0.304450
vt 0.003978 0.012971
vt 0.238011 0.013207
vt 0.240113 0.484895
vt 0.005223 0.484684
vt 0.005371 0.289715
vt 0.003978 0.012971
vt 0.238011 0.013207
vt 0.241117 0.289715
vt 0.240113 0.484895
vt 0.005223 0.484683
vt 0.003978 0.012971
vt 0.238011 0.013207
vt 0.240113 0.484895
vt 0.005223 0.484684
vt 0.953445 0.131639
vt 0.821833 0.131666
vt 0.821929 0.002951
vt 0.953829 0.001525
vt 0.177599 0.777611
vt 0.176681 0.575844
vt 0.380077 0.575844
vt 0.380072 0.354638
vt 0.627115 0.357391
vt 0.833912 0.356533
vt 0.841263 0.787342
vt 0.995044 0.787076
vt 0.995039 0.996443
vt 0.841259 0.998501
vt 0.620262 0.997130
vt 0.621118 0.580127
vt 0.576102 0.579270
vt 0.575920 0.779445
vt 0.383744 0.783116
vt 0.383252 0.973099
vt 0.189528 0.973099
vt 0.067578 0.972242
vt 0.017828 0.779447
vt 0.962742 0.140732
vt 0.962742 0.006710
vt 0.989609 0.006710
vt 0.994138 0.140732
vt 0.821929 0.002951
vt 0.953828 0.001525
vt 0.953445 0.131639
vt 0.821833 0.131666
vt 0.821929 0.002951
vt 0.953829 0.001525
vt 0.953445 0.131639
vt 0.821833 0.131666
vt 0.953445 0.131639
vt 0.821833 0.131666
vt 0.821929 0.002951
vt 0.953829 0.001525
vt 0.852152 0.343557
vt 0.663057 0.343557
vt 0.663057 0.147763
vt 0.852152 0.147763
vt 0.954634 0.147763
vt 0.954634 0.343557
vt 0.821929 0.002951
vt 0.953829 0.001525
vt 0.953445 0.131639
vt 0.821833 0.131666
vt 0.774851 0.057142
vt 0.763784 0.057142
vt 0.763784 0.046628
vt 0.752900 0.046628
vt 0.752900 0.035650
vt 0.750602 0.035650
vt 0.750602 0.058639
vt 0.738736 0.058667
vt 0.730356 0.058696
vt 0.730356 0.047236
vt 0.738735 0.047279
vt 0.739143 0.023568
vt 0.750602 0.023568
vt 0.763784 0.023568
vt 0.763784 0.035650
vt 0.774851 0.035650
vt 0.774851 0.046628
vt 0.783451 0.046628
vt 0.780849 0.057142
vt 0.307143 0.061939
vt 0.563728 0.062471
vt 0.563699 0.304983
vt 0.307114 0.304450
vt 0.003978 0.012971
vt 0.238011 0.013207
vt 0.240113 0.484895
vt 0.005223 0.484684
vt 0.228273 0.013197
vt 0.230339 0.484886
vt 0.962742 0.135155
vt 0.228273 0.013197
vt 0.827418 0.002891
vt 0.993949 0.135155
vt 0.827418 0.002891
vt 0.827309 0.131665
vt 0.827418 0.002891
vt 0.827309 0.131665
vt 0.663057 0.335410
vt 0.827309 0.131665
vt 0.551471 0.304957
vt 0.954634 0.334226
vt 0.551500 0.062446
vt 0.230860 0.484886
vt 0.228792 0.013197
vt 0.228792 0.013197
vt 0.962742 0.135453
vt 0.993959 0.135453
vt 0.827125 0.002895
vt 0.827018 0.131665
vt 0.827125 0.002894
vt 0.827018 0.131665
vt 0.827125 0.002895
vt 0.827018 0.131665
vt 0.663057 0.335844
vn 0.003044 0.206836 -0.978371
vn -0.216301 0.200435 -0.955531
vn -0.495387 0.868672 0.000000
vn -0.013452 0.207230 0.978200
vn -0.004220 0.206300 0.978480
vn -0.004218 0.204954 0.978763
vn 0.003036 0.209024 -0.977906
vn -0.994189 0.107647 -0.000217
vn -0.013184 0.000488 0.999913
vn -0.121327 0.000607 -0.992612
vn -0.128957 -0.000608 0.991650
vn -0.128799 -0.000608 0.991670
vn -0.121485 0.000607 -0.992593
vn -0.117417 -0.000609 0.993083
vn -0.117704 -0.000609 0.993048
vn -0.003723 -0.000613 0.999993
vn 0.234655 -0.004692 0.972067
vn 0.233409 -0.004671 0.972367
vn -0.003723 -0.000613 0.999993
vn 0.000799 0.000464 1.000000
vn 0.000787 0.003801 0.999992
vn 0.000608 0.003709 0.999993
vn 0.000588 0.174958 0.984576
vn -0.003667 0.174957 0.984569
vn -0.003681 0.152053 0.988366
vn -0.003723 -0.000613 0.999993
vn 0.975680 0.216771 0.032534
vn 0.708927 0.704922 0.022537
vn 0.701620 0.712550 -0.001435
vn -0.109790 0.000608 -0.993955
vn -0.110078 0.000608 -0.993923
vn 0.294076 0.955780 -0.001925
vn 0.106657 0.174478 -0.978868
vn 0.003640 0.175478 -0.984477
vn 0.003654 0.152681 -0.988269
vn 0.107456 0.106357 -0.988505
vn 0.112685 0.104432 -0.988128
vn 0.113007 0.025903 -0.993256
vn -0.220211 0.024815 -0.975137
vn 0.003699 0.000612 -0.999993
vn 0.239950 -0.003469 -0.970779
vn 0.239357 -0.003459 -0.970926
vn 0.003699 0.000612 -0.999993
vn 0.003699 0.000612 -0.999993
vn -0.970733 0.240163 -0.000484
vn -0.970733 0.240163 -0.000484
vn -0.970733 0.240163 -0.000484
vn -0.970733 0.240163 -0.000484
vn -0.003044 0.206836 -0.978371
vn -0.003036 0.209024 -0.977906
vn 0.004218 0.204954 0.978763
vn 0.004220 0.206300 0.978480
vn 0.013971 0.207229 0.978193
vn 0.495387 0.868672 0.000000
vn 0.215819 0.200457 -0.955636
vn 0.219720 0.024758 -0.975249
vn 0.994189 0.107647 -0.000217
vn 0.121326 0.000607 -0.992612
vn 0.121484 0.000607 -0.992593
vn 0.128799 -0.000608 0.991670
vn 0.128957 -0.000608 0.991650
vn 0.117416 -0.000609 0.993083
vn 0.009920 0.000920 0.999950
vn 0.008156 0.153130 0.988172
vn 0.003667 0.174957 0.984569
vn -0.000828 0.174958 0.984575
vn -0.000852 0.003952 0.999992
vn -0.001041 0.004050 0.999991
vn -0.001053 0.000525 0.999999
vn 0.013716 0.000550 0.999906
vn 0.003723 -0.000613 0.999993
vn -0.233409 -0.004671 0.972367
vn -0.234655 -0.004692 0.972067
vn 0.003723 -0.000613 0.999993
vn 0.117704 -0.000609 0.993048
vn -0.975675 0.216793 0.032534
vn -0.112757 0.025841 -0.993287
vn -0.708961 0.704887 0.022538
vn -0.701618 0.712552 -0.001435
vn -0.107222 0.106123 -0.988555
vn -0.112439 0.104201 -0.988180
vn 0.109790 0.000608 -0.993955
vn 0.110078 0.000608 -0.993923
vn 0.274914 0.961467 -0.001936
vn 0.085064 0.173517 -0.981150
vn -0.003640 0.175478 -0.984477
vn -0.106422 0.174483 -0.978892
vn -0.294078 0.955780 -0.001925
vn 0.118539 0.030842 -0.992470
vn -0.003699 0.000612 -0.999993
vn -0.239357 -0.003459 -0.970926
vn -0.239950 -0.003469 -0.970779
vn -0.003699 0.000612 -0.999993
vn 0.970732 0.240163 -0.000484
s 1
g pasted__pasted__pCube6 pasted__group2 group
usemtl pasted__lambert3SG
f 6/1/1 5/2/2 85/189/3 3/3/4 4/4/5 12/5/6 13/6/7
f 86/190/8 16/8/9 3/9/4 85/188/3
f 17/11/10 18/12/11 19/13/12 20/14/13
f 29/15/14 28/16/15 19/17/12 18/18/11 1/19/16 2/20/17 9/21/18 11/22/19 12/23/6 4/24/5 3/25/4 16/26/9 22/27/20 24/28/21 26/29/22 32/30/23 34/31/24 37/32/25 36/33/26
f 16/34/9 86/191/8 87/192/27 22/37/20
f 24/38/21 88/195/28 89/196/29 26/41/22
f 22/42/20 87/193/27 88/194/28 24/45/21
f 27/46/30 28/47/15 29/48/14 30/49/31
f 34/50/24 32/51/23 90/199/32 31/52/33 33/53/34 38/54/35 37/55/25
f 26/56/22 89/197/29 90/198/32 32/59/23
f 33/60/34 31/61/33 25/62/36 23/63/37 21/64/38 15/65/39 5/66/2 6/67/1 13/68/7 14/69/40 10/70/41 8/71/42 7/72/43 17/73/10 20/74/13 27/75/30 30/76/31 35/77/44 38/78/35
s off
f 35/79/45 36/80/46 37/81/47 38/82/48
s 1
f 2/83/17 8/84/42 10/85/41 9/86/18
s 2
f 39/87/49 44/92/50 43/91/51 42/90/52 41/89/53 77/173/54 40/88/55
f 45/93/56 40/96/55 77/174/54 78/176/57
f 47/97/58 50/100/59 49/99/60 48/98/61
f 51/101/62 63/119/63 62/118/64 61/117/65 60/116/66 59/115/67 58/114/68 57/113/69 46/112/70 41/111/53 42/110/52 43/109/51 56/108/71 55/107/72 54/106/73 53/105/74 48/104/61 49/103/60 52/102/75
f 78/175/57 79/178/76 64/122/77 45/121/56
f 80/179/78 81/182/79 66/126/80 65/125/81
f 79/177/76 80/180/78 65/130/81 64/129/77
f 67/132/82 68/135/83 51/134/62 52/133/75
f 61/136/65 62/141/64 83/186/84 71/140/85 70/139/86 69/138/87 82/183/88 60/137/66
f 81/181/79 82/184/88 69/144/87 66/143/80
f 70/146/86 71/164/85 76/163/89 68/162/83 67/161/82 50/160/59 47/159/58 75/158/90 74/157/91 73/156/92 72/155/93 44/154/50 39/153/49 40/152/55 45/151/56 64/150/77 65/149/81 66/148/80 69/147/87
f 76/165/89 71/168/85 83/185/84 84/187/94
f 54/169/73 55/172/72 73/171/92 74/170/91
f 78/176/57 77/174/54 41/95/53 46/94/70
f 46/120/70 57/123/69 79/178/76 78/175/57
f 57/128/69 58/131/68 80/180/78 79/177/76
f 58/124/68 59/127/67 81/182/79 80/179/78
f 59/142/67 60/145/66 82/184/88 81/181/79
f 84/187/94 83/185/84 62/167/64 63/166/63
s 1
f 15/7/39 86/190/8 85/188/3 5/10/2
f 87/192/27 86/191/8 15/35/39 21/36/38
f 88/194/28 87/193/27 21/43/38 23/44/37
f 89/196/29 88/195/28 23/39/37 25/40/36
f 90/198/32 89/197/29 25/57/36 31/58/33
g default
v -0.076940 2.135833 -1.509315
v 0.875391 2.135833 -1.509315
v -0.231955 2.777217 -1.354299
v 1.030406 2.777217 -1.354300
v -0.035748 4.338565 -1.550829
v 0.833669 4.338565 -1.553256
v -0.032629 4.339763 -2.414358
v 0.834435 4.338565 -2.419714
v -0.231955 2.777217 -2.616661
v 1.030406 2.777217 -2.616661
v -0.076940 2.135833 -2.461645
v 0.875391 2.135833 -2.461645
v -0.058232 2.135833 -1.500503
v -0.205763 2.777217 -1.344096
v -0.205763 2.777217 -2.626864
v -0.058232 2.135833 -2.470458
v 0.858192 2.135833 -1.500503
v 1.006209 2.777217 -1.344096
v 1.006209 2.777217 -2.626864
v 0.858192 2.135833 -2.470458
v 0.884203 2.135833 -1.530116
v 1.040610 2.777217 -1.383259
v 0.817009 4.353030 -1.570975
v -0.017185 4.353030 -1.570975
v -0.242159 2.777217 -1.383259
v -0.085752 2.135833 -1.530115
v 0.884203 2.135833 -2.442916
v 1.040610 2.777217 -2.590441
v 0.817009 4.353030 -2.401871
v -0.017185 4.353030 -2.401871
v -0.242159 2.777217 -2.590441
v -0.085752 2.135833 -2.442916
v 0.819601 4.331442 -2.429680
v -0.019768 4.331442 -2.429680
v -0.044974 4.331442 -2.404455
v -0.044974 4.331442 -1.568403
v -0.019768 4.331442 -1.541281
v 0.819601 4.331442 -1.541281
v 0.843426 4.331442 -1.568403
v 0.843426 4.331442 -2.404455
vt 0.104218 0.024182
vt 0.656561 0.024182
vt 0.745627 0.307011
vt 0.015152 0.307011
vt 0.629190 0.982856
vt 0.135741 0.985187
vt 0.922135 0.988590
vt 0.664998 0.931913
vt 0.721349 0.675112
vt 0.978618 0.731670
vt 0.624553 0.980810
vt 0.134866 0.980810
vt 0.014668 0.302634
vt 0.745143 0.302634
vt 0.103734 0.019805
vt 0.656077 0.019805
vt 0.103734 0.023094
vt 0.656076 0.023094
vt 0.745143 0.305922
vt 0.014668 0.305922
vt 0.628507 0.981768
vt 0.135799 0.984099
vt 0.104703 0.019805
vt 0.657045 0.019805
vt 0.746111 0.302634
vt 0.015637 0.302634
vt 0.629207 0.978479
vt 0.136231 0.980810
vt 0.119890 0.024182
vt 0.035878 0.307011
vt 0.724417 0.302634
vt 0.640405 0.019805
vt 0.641749 0.024182
vt 0.726038 0.307011
vt 0.034257 0.302634
vt 0.118546 0.019805
vt 0.120597 0.023094
vt 0.036969 0.305922
vt 0.671141 0.929021
vt 0.919682 0.981775
vt 0.723810 0.302634
vt 0.640182 0.019805
vt 0.640393 0.023094
vt 0.724401 0.305922
vt 0.723687 0.681463
vt 0.972227 0.734217
vt 0.036378 0.302634
vt 0.120386 0.019805
vt 0.140521 0.973818
vt 0.618502 0.973818
vt 0.142288 0.973818
vt 0.618379 0.973818
vt 0.141793 0.978195
vt 0.619773 0.978195
vt 0.142400 0.977107
vt 0.618491 0.977107
vn -0.694457 -0.322051 0.643438
vn -0.007010 -0.238453 0.971129
vn -0.010344 0.021238 0.999721
vn -0.731599 0.026692 0.681213
vn -0.706997 0.027592 -0.706678
vn -0.012514 0.021419 -0.999692
vn -0.007010 -0.238453 -0.971129
vn -0.669646 -0.322263 -0.669119
vn 0.713071 -0.321605 0.622976
vn 0.971132 -0.238440 0.006977
vn 0.999723 0.021090 0.010480
vn 0.749925 0.026867 0.660977
vn -0.971132 -0.238440 0.006977
vn -0.999724 0.021154 0.010266
vn 0.007062 -0.238468 0.971125
vn 0.011267 0.021382 0.999708
vn -0.649374 0.443396 0.617830
vn -0.009935 0.134453 0.990870
vn 0.011428 0.134249 0.990882
vn 0.654218 0.462548 0.598371
vn -0.023082 0.999457 0.023530
vn 0.023871 0.999440 0.023434
vn -0.013505 0.135249 -0.990720
vn -0.615793 0.502241 -0.607086
vn 0.644134 0.450597 -0.618105
vn 0.010277 0.135677 -0.990700
vn 0.010495 0.021307 -0.999718
vn 0.007061 -0.238468 -0.971125
vn 0.726212 0.026399 -0.686964
vn 0.689039 -0.322131 -0.649198
vn 0.971127 -0.238458 -0.007037
vn 0.999724 0.021179 -0.010173
vn 0.991016 0.133358 0.010177
vn 0.991017 0.133381 -0.009768
vn 0.023829 0.999457 -0.022748
vn -0.021732 0.999491 -0.023358
vn -0.990936 0.133751 -0.012473
vn -0.990865 0.134511 0.009634
vn -0.971127 -0.238459 -0.007037
vn -0.999711 0.021150 -0.011431
s 1
g pCube1
usemtl lambert3SG
f 91/200/95 103/228/96 104/229/97 93/203/98
f 99/213/99 105/230/100 106/231/101 101/215/102
f 92/216/103 111/236/104 112/237/105 94/219/106
f 116/241/107 91/223/95 93/224/98 115/240/108
f 103/228/96 107/232/109 108/233/110 104/229/97
f 95/205/111 127/252/112 128/253/113 96/204/114
f 114/239/115 95/206/111 96/207/114 113/238/116
f 124/249/117 97/210/118 98/211/119 123/248/120
f 106/231/101 105/230/100 109/234/121 110/235/122
f 107/232/109 92/201/103 94/202/106 108/233/110
f 110/235/122 109/234/121 100/212/123 102/214/124
f 111/236/104 117/242/125 118/243/126 112/237/105
f 96/221/114 129/254/127 130/255/128 98/220/119
f 119/244/129 113/238/116 96/207/114 98/208/119
f 120/245/130 114/239/115 113/238/116 119/244/129
f 95/206/111 114/239/115 120/245/130 97/209/118
f 125/250/131 126/251/132 95/226/111 97/227/118
f 122/247/133 116/241/107 115/240/108 121/246/134
f 117/242/125 102/217/124 100/218/123 118/243/126
f 97/209/118 120/245/130 119/244/129 98/208/119
f 101/222/102 122/247/133 121/246/134 99/225/99
f 109/234/121 123/248/120 98/211/119 100/212/123
f 105/230/100 124/249/117 123/248/120 109/234/121
f 97/210/118 124/249/117 105/230/100 99/213/99
f 99/225/99 121/246/134 125/250/131 97/227/118
f 121/246/134 115/240/108 126/251/132 125/250/131
f 115/240/108 93/224/98 95/226/111 126/251/132
f 93/203/98 104/229/97 127/252/112 95/205/111
f 128/253/113 127/252/112 104/229/97 108/233/110
f 96/204/114 128/253/113 108/233/110 94/202/106
f 94/219/106 112/237/105 129/254/127 96/221/114
f 130/255/128 129/254/127 112/237/105 118/243/126
f 98/220/119 130/255/128 118/243/126 100/218/123
g default
v 0.577131 2.170437 -1.683267
v 5.162898 2.170437 -1.683267
v 0.577131 2.667365 -1.683267
v 5.162898 2.667365 -1.683267
v 0.577131 2.667365 -2.235743
v 5.162898 2.667365 -2.235743
v 0.577131 2.170437 -2.235743
v 5.162898 2.170437 -2.235743
v 0.577131 2.580090 -2.400009
v 5.162898 2.580090 -2.400009
v 5.162898 2.257713 -2.400009
v 0.577131 2.257713 -2.400009
v 0.577131 2.389097 -1.506894
v 5.162898 2.389097 -1.506894
v 5.162898 2.448704 -1.506894
v 0.577131 2.448704 -1.506894
vt 0.020217 0.174032
vt 0.979783 0.174032
vt 0.979783 0.204204
vt 0.020217 0.204204
vt 0.020217 0.346408
vt 0.979783 0.346408
vt 0.979783 0.626068
vt 0.020217 0.626068
vt 0.020217 0.720225
vt 0.979783 0.720225
vt 0.979783 0.883411
vt 0.020217 0.883411
vt 0.979783 0.977569
vt 0.020217 0.977569
vt 0.020217 0.031829
vt 0.979783 0.031829
vn 0.000000 0.000000 1.000000
vn 0.000000 0.000000 1.000000
vn 0.000000 0.000000 1.000000
vn 0.000000 0.000000 1.000000
vn 0.000000 1.000000 0.000000
vn 0.000000 1.000000 0.000000
vn 0.000000 1.000000 0.000000
vn 0.000000 1.000000 0.000000
vn 0.000000 0.000000 -1.000000
vn 0.000000 0.000000 -1.000000
vn 0.000000 0.000000 -1.000000
vn 0.000000 0.000000 -1.000000
vn 0.000000 0.883097 -0.469191
vn 0.000000 0.883097 -0.469191
vn 0.000000 0.883097 -0.469191
vn 0.000000 0.883097 -0.469191
vn 0.000000 -0.883096 -0.469192
vn 0.000000 -0.883096 -0.469192
vn 0.000000 -0.883096 -0.469192
vn 0.000000 -0.883096 -0.469192
vn 0.000000 -0.627826 0.778354
vn 0.000000 -0.627826 0.778354
vn 0.000000 -0.627826 0.778354
vn 0.000000 -0.627826 0.778354
vn 0.000000 0.627824 0.778355
vn 0.000000 0.627824 0.778355
vn 0.000000 0.627824 0.778355
vn 0.000000 0.627824 0.778355
s off
g pCube2
usemtl lambert4SG
f 143/256/135 144/257/136 145/258/137 146/259/138
f 133/260/139 134/261/140 136/262/141 135/263/142
f 139/264/143 140/265/144 141/266/145 142/267/146
f 135/263/147 136/262/148 140/265/149 139/264/150
f 138/268/151 137/269/152 142/267/153 141/266/154
f 131/270/155 132/271/156 144/257/157 143/256/158
f 134/261/159 133/260/160 146/259/161 145/258/162
