# This file uses centimeters as units for non-parametric coordinates.

mtllib LevelHandle.mtl
g default
v -0.660970 1.300094 0.790662
v -0.114893 1.300094 0.790662
v -0.561576 4.089917 0.710906
v -0.214287 4.089917 0.710906
v -0.561576 4.089917 0.432237
v -0.214287 4.089917 0.432237
v -0.660970 1.300094 0.352481
v -0.114893 1.300094 0.352481
v -0.114893 2.279345 0.352481
v -0.660970 2.279345 0.352481
v -0.660970 2.279345 0.790662
v -0.114893 2.279345 0.790662
v -0.114893 3.477217 0.352481
v -0.660970 3.598253 0.352481
v -0.660970 3.598253 0.790662
v -0.114893 3.477217 0.790662
v -0.067257 2.279345 0.304845
v -0.708607 2.279345 0.304845
v -0.067257 1.300094 0.304845
v -0.708607 1.300094 0.304845
v -0.708607 1.300094 0.838298
v -0.708607 2.279345 0.838298
v -0.067257 1.300094 0.838298
v -0.067257 2.279345 0.838298
v 0.097048 1.913384 0.304845
v -0.887944 1.913384 0.304845
v -0.887944 1.913384 0.838298
v 0.097048 1.913384 0.838298
v 0.097048 1.552615 0.304845
v -0.887944 1.552615 0.304845
v -0.887944 1.552615 0.838298
v 0.097048 1.552615 0.838298
v -0.178768 3.563436 0.403736
v -0.597095 3.656157 0.403736
v -0.597095 3.656157 0.739407
v -0.178768 3.563436 0.739407
v -0.079276 3.539407 0.316865
v -0.696587 3.683706 0.316865
v -0.079276 3.466259 0.316865
v -0.696587 3.610557 0.316865
v -0.696587 3.610557 0.826278
v -0.696587 3.683706 0.826278
v -0.079276 3.466259 0.826278
v -0.079276 3.539407 0.826278
v -0.578896 4.539618 0.739407
v -0.181844 4.360979 0.739407
v -0.181844 4.360979 0.403736
v -0.578896 4.539618 0.403736
v -0.553895 4.590054 0.739407
v -0.156842 4.411416 0.739407
v -0.156842 4.411416 0.403736
v -0.553895 4.590054 0.403736
v -0.460442 4.659580 0.739407
v -0.181366 4.480941 0.739407
v -0.181366 4.480941 0.403736
v -0.460442 4.659580 0.403736
v -0.656518 4.574542 0.821188
v -0.104222 4.326056 0.821188
v -0.079221 4.376492 0.821188
v -0.631517 4.624978 0.821188
v -0.104222 4.326056 0.321954
v -0.079221 4.376492 0.321954
v -0.656518 4.574542 0.321954
v -0.631517 4.624978 0.321954
v -0.401401 4.621787 0.668392
v -0.240408 4.518734 0.668392
v -0.240408 4.518734 0.474751
v -0.401401 4.621787 0.474751
v -0.429378 4.549935 0.639588
v -0.268469 4.477540 0.639588
v -0.268469 4.477540 0.503555
v -0.429378 4.549935 0.503555
vt 0.375000 0.000000
vt 0.625000 0.000000
vt 0.375000 0.250000
vt 0.625000 0.250000
vt 0.375000 0.500000
vt 0.625000 0.500000
vt 0.375000 0.750000
vt 0.625000 0.750000
vt 0.375000 1.000000
vt 0.625000 1.000000
vt 0.875000 0.000000
vt 0.875000 0.250000
vt 0.125000 0.000000
vt 0.125000 0.250000
vt 0.625000 0.650360
vt 0.875000 0.099640
vt 0.125000 0.099640
vt 0.375000 0.650360
vt 0.375000 0.099640
vt 0.625000 0.099640
vt 0.625000 0.561735
vt 0.875000 0.188265
vt 0.125000 0.188265
vt 0.375000 0.561735
vt 0.375000 0.188265
vt 0.625000 0.188265
vt 0.375000 0.650360
vt 0.625000 0.650360
vt 0.625000 0.750000
vt 0.375000 0.750000
vt 0.125000 0.000000
vt 0.375000 0.000000
vt 0.375000 0.099640
vt 0.125000 0.099640
vt 0.625000 0.000000
vt 0.625000 0.099640
vt 0.875000 0.000000
vt 0.875000 0.099640
vt 0.625000 0.687597
vt 0.875000 0.062403
vt 0.125000 0.062403
vt 0.375000 0.687597
vt 0.375000 0.062403
vt 0.625000 0.062403
vt 0.625000 0.724306
vt 0.875000 0.025694
vt 0.125000 0.025694
vt 0.375000 0.724306
vt 0.375000 0.025694
vt 0.625000 0.025694
vt 0.625000 0.554292
vt 0.875000 0.195708
vt 0.125000 0.195708
vt 0.375000 0.554292
vt 0.375000 0.195708
vt 0.625000 0.195708
vt 0.375000 0.554292
vt 0.625000 0.554292
vt 0.625000 0.561735
vt 0.375000 0.561735
vt 0.125000 0.188265
vt 0.375000 0.188265
vt 0.375000 0.195708
vt 0.125000 0.195708
vt 0.625000 0.188265
vt 0.625000 0.195708
vt 0.875000 0.188265
vt 0.875000 0.195708
vt 0.375000 0.250000
vt 0.625000 0.250000
vt 0.625000 0.500000
vt 0.375000 0.500000
vt 0.375000 0.250000
vt 0.625000 0.250000
vt 0.625000 0.500000
vt 0.375000 0.500000
vt 0.375000 0.250000
vt 0.625000 0.250000
vt 0.625000 0.500000
vt 0.375000 0.500000
vt 0.375000 0.250000
vt 0.625000 0.250000
vt 0.625000 0.250000
vt 0.375000 0.250000
vt 0.625000 0.500000
vt 0.625000 0.500000
vt 0.375000 0.500000
vt 0.375000 0.500000
vt 0.375000 0.250000
vt 0.625000 0.250000
vt 0.625000 0.500000
vt 0.375000 0.500000
vt 0.375000 0.250000
vt 0.625000 0.250000
vt 0.625000 0.500000
vt 0.375000 0.500000
vn 0.007176 0.059257 0.998217
vn 0.007176 0.059257 0.998217
vn -0.004039 -0.000088 0.999992
vn -0.003675 0.001841 0.999992
vn 0.410299 0.911951 0.000001
vn 0.410299 0.911951 0.000001
vn 0.410299 0.911951 0.000001
vn 0.410299 0.911951 0.000001
vn -0.003675 0.001841 -0.999992
vn -0.004039 -0.000088 -0.999992
vn 0.007176 0.059257 -0.998217
vn 0.007176 0.059257 -0.998217
vn 0.000000 -1.000000 0.000000
vn 0.000000 -1.000000 0.000000
vn 0.000000 -1.000000 -0.000000
vn 0.000000 -1.000000 -0.000000
vn 0.997732 0.067313 0.000000
vn 0.997732 0.067313 0.000000
vn 0.999997 0.002577 0.000000
vn 0.999997 0.002577 0.000000
vn -0.996664 0.081614 0.000000
vn -0.996664 0.081614 0.000000
vn -0.999787 0.020635 0.000000
vn -0.999787 0.020635 0.000000
vn 0.000000 0.000000 -1.000000
vn 0.000000 0.000000 -1.000000
vn 0.000000 0.000000 -1.000000
vn 0.000000 0.000000 -1.000000
vn -0.970875 0.239586 0.000000
vn -0.970875 0.239586 0.000000
vn -0.897974 0.440049 0.000000
vn -0.897974 0.440049 0.000000
vn 0.000000 0.000000 1.000000
vn 0.000000 0.000000 1.000000
vn 0.000000 0.000000 1.000000
vn 0.000000 0.000000 1.000000
vn 0.975382 0.220522 0.000000
vn 0.975382 0.220522 0.000000
vn 0.912273 0.409582 0.000000
vn 0.912273 0.409582 0.000000
vn 0.000000 0.000000 -1.000000
vn 0.000000 0.000000 -1.000000
vn 0.000000 0.000000 -1.000000
vn 0.000000 0.000000 -1.000000
vn -1.000000 0.000000 0.000000
vn -1.000000 0.000000 0.000000
vn -1.000000 0.000000 0.000000
vn -1.000000 0.000000 0.000000
vn 0.000000 0.000000 1.000000
vn 0.000000 0.000000 1.000000
vn 0.000000 0.000000 1.000000
vn 0.000000 0.000000 1.000000
vn 1.000000 0.000000 0.000000
vn 1.000000 0.000000 0.000000
vn 1.000000 0.000000 0.000000
vn 1.000000 0.000000 0.000000
vn 0.000000 1.000000 0.000000
vn 0.000000 1.000000 0.000000
vn 0.000000 1.000000 0.000000
vn 0.000000 1.000000 0.000000
vn 0.000000 -1.000000 0.000001
vn 0.000000 -1.000000 0.000001
vn 0.000000 -1.000000 -0.000001
vn 0.000000 1.000000 0.000000
vn 0.000000 1.000000 0.000000
vn 0.000000 -1.000000 -0.000001
vn 0.000000 1.000000 0.000000
vn 0.000000 1.000000 0.000000
vn 0.000000 0.000000 -1.000000
vn 0.000000 0.000000 -1.000000
vn -0.959806 -0.280665 0.000000
vn -0.959806 -0.280665 0.000000
vn 0.000000 0.000000 1.000000
vn 0.000000 0.000000 1.000000
vn 0.965936 -0.258781 0.000000
vn 0.965936 -0.258781 0.000000
vn 0.000000 0.000000 -1.000000
vn 0.000000 0.000000 -1.000000
vn -0.815310 -0.579024 0.000000
vn -0.815310 -0.579024 0.000000
vn 0.000000 0.000000 1.000000
vn 0.000000 0.000000 1.000000
vn 0.838192 -0.545376 0.000000
vn 0.838192 -0.545376 0.000000
vn 0.000000 0.000000 -1.000000
vn 0.000000 0.000000 -1.000000
vn 0.000000 0.000000 -1.000000
vn 0.000000 0.000000 -1.000000
vn -1.000000 0.000000 0.000000
vn -1.000000 0.000000 0.000000
vn -1.000000 0.000000 0.000000
vn -1.000000 0.000000 0.000000
vn 0.000000 0.000000 1.000000
vn 0.000000 0.000000 1.000000
vn 0.000000 0.000000 1.000000
vn 0.000000 0.000000 1.000000
vn 1.000000 0.000000 0.000000
vn 1.000000 0.000000 0.000000
vn 1.000000 0.000000 0.000000
vn 1.000000 0.000000 0.000000
vn 0.243622 0.969813 0.010514
vn 0.228530 0.973480 0.010539
vn 0.229342 0.973303 0.009169
vn 0.246797 0.969025 0.009082
vn -0.254746 -0.966955 -0.010154
vn -0.269759 -0.962875 -0.010125
vn -0.271977 -0.962254 -0.009734
vn -0.256032 -0.966618 -0.009824
vn -0.269759 -0.962875 0.010126
vn -0.271977 -0.962254 0.009734
vn 0.243622 0.969813 -0.010514
vn 0.246797 0.969025 -0.009082
vn -0.254746 -0.966955 0.010154
vn -0.256032 -0.966618 0.009824
vn 0.228530 0.973480 -0.010539
vn 0.229342 0.973303 -0.009170
vn -0.018824 -0.078434 0.996742
vn -0.018824 -0.078434 0.996742
vn 0.992913 -0.118841 0.000000
vn 0.992913 -0.118841 0.000000
vn -0.018824 -0.078434 -0.996742
vn -0.018824 -0.078434 -0.996742
vn -0.999259 -0.038487 0.000000
vn -0.999259 -0.038487 0.000000
vn 0.000000 0.000000 1.000000
vn 0.000000 0.000000 1.000000
vn 0.000000 0.000000 1.000000
vn 0.000000 0.000000 1.000000
vn 0.895959 -0.444136 0.000000
vn 0.895959 -0.444136 0.000000
vn 0.895959 -0.444136 0.000000
vn 0.895959 -0.444136 0.000000
vn 0.000000 0.000000 -1.000000
vn 0.000000 0.000000 -1.000000
vn 0.000000 0.000000 -1.000000
vn 0.000000 0.000000 -1.000000
vn -0.895960 0.444135 0.000000
vn -0.895960 0.444135 0.000000
vn -0.895960 0.444135 0.000000
vn -0.895960 0.444135 0.000000
vn 0.000000 0.000000 1.000000
vn 0.000000 0.000000 1.000000
vn 0.000000 0.000000 1.000000
vn 0.000000 0.000000 1.000000
vn 0.943053 0.332644 0.000000
vn 0.943053 0.332643 0.000000
vn 0.943053 0.332644 0.000000
vn 0.943053 0.332644 0.000000
vn 0.000000 0.000000 -1.000000
vn 0.000000 0.000000 -1.000000
vn 0.000000 0.000000 -1.000000
vn 0.000000 0.000000 -1.000000
vn -0.596897 0.802318 0.000000
vn -0.596897 0.802318 0.000000
vn -0.596897 0.802318 0.000000
vn -0.596897 0.802318 0.000000
vn -0.410299 -0.911951 0.000000
vn -0.410299 -0.911951 0.000000
vn -0.410299 -0.911951 0.000000
vn -0.410299 -0.911951 0.000000
vn 0.410299 0.911951 -0.000000
vn 0.410299 0.911951 -0.000001
vn 0.410299 0.911951 -0.000001
vn 0.410299 0.911951 -0.000000
vn -0.410299 -0.911951 0.000000
vn -0.410299 -0.911951 0.000000
vn 0.410299 0.911951 -0.000001
vn 0.410299 0.911951 -0.000001
vn -0.410299 -0.911951 0.000000
vn -0.410299 -0.911951 0.000000
vn 0.410299 0.911951 -0.000001
vn 0.410299 0.911951 -0.000001
vn 0.539119 0.842230 0.000000
vn 0.539119 0.842230 0.000000
vn 0.539119 0.842230 0.000000
vn 0.539119 0.842230 0.000000
vn 0.539119 0.842230 0.000000
vn 0.539119 0.842230 0.000000
vn 0.539119 0.842230 0.000000
vn 0.539119 0.842230 0.000000
vn 0.539119 0.842230 -0.000000
vn 0.539119 0.842230 -0.000000
vn 0.539119 0.842230 -0.000000
vn 0.539119 0.842230 -0.000000
vn 0.539118 0.842230 0.000000
vn 0.539118 0.842230 0.000000
vn 0.539118 0.842231 0.000000
vn 0.539118 0.842231 0.000000
vn 0.198890 0.364912 -0.909551
vn 0.198890 0.364912 -0.909551
vn 0.198890 0.364912 -0.909551
vn 0.198890 0.364912 -0.909551
vn -0.826468 0.562984 0.000000
vn -0.826468 0.562984 0.000000
vn -0.826468 0.562984 0.000000
vn -0.826468 0.562984 0.000000
vn 0.198890 0.364912 0.909550
vn 0.198890 0.364912 0.909550
vn 0.198890 0.364912 0.909550
vn 0.198890 0.364912 0.909550
vn 0.931854 -0.362833 0.000000
vn 0.931854 -0.362833 0.000000
vn 0.931854 -0.362833 0.000000
vn 0.931854 -0.362833 0.000000
s 1
g pCube3
usemtl initialShadingGroup
f 35/55/1 36/56/2 4/4/3 3/3/4
s off
f 69/93/5 70/94/6 71/95/7 72/96/8
s 2
f 5/5/9 6/6/10 33/51/11 34/54/12
s 3
f 7/7/13 8/8/14 2/10/15 1/9/16
s 4
f 36/56/17 33/52/18 6/12/19 4/4/20
s 5
f 34/53/21 35/55/22 3/3/23 5/14/24
s 6
f 18/27/25 17/28/26 25/39/27 26/42/28
s 7
f 26/41/29 27/43/30 22/33/31 18/34/32
s 8
f 27/43/33 28/44/34 24/36/35 22/33/36
s 9
f 28/44/37 25/40/38 17/38/39 24/36/40
s off
f 14/24/41 13/21/42 9/15/43 10/18/44
f 10/17/45 11/19/46 15/25/47 14/23/48
f 11/19/49 12/20/50 16/26/51 15/25/52
f 12/20/53 9/16/54 13/22/55 16/26/56
s 10
f 10/18/57 9/15/58 17/28/59 18/27/60
s 3
f 8/8/14 7/7/13 20/30/61 19/29/62
f 7/13/13 1/1/16 21/32/63 20/31/61
s 10
f 11/19/64 10/17/57 18/34/60 22/33/65
s 3
f 1/1/16 2/2/15 23/35/66 21/32/63
s 10
f 12/20/67 11/19/64 22/33/65 24/36/68
s 3
f 2/2/15 8/11/14 19/37/62 23/35/66
s 10
f 9/16/58 12/20/67 24/36/68 17/38/59
s 6
f 26/42/28 25/39/27 29/45/69 30/48/70
s 7
f 30/47/71 31/49/72 27/43/30 26/41/29
s 8
f 31/49/73 32/50/74 28/44/34 27/43/33
s 9
f 32/50/75 29/46/76 25/40/38 28/44/37
s 6
f 30/48/70 29/45/69 19/29/77 20/30/78
s 7
f 20/31/79 21/32/80 31/49/72 30/47/71
s 8
f 21/32/81 23/35/82 32/50/74 31/49/73
s 9
f 23/35/83 19/37/84 29/46/76 32/50/75
s off
f 38/57/85 37/58/86 39/59/87 40/60/88
f 40/61/89 41/62/90 42/63/91 38/64/92
f 41/62/93 43/65/94 44/66/95 42/63/96
f 43/65/97 39/67/98 37/68/99 44/66/100
s 11
f 34/54/101 33/51/102 37/58/103 38/57/104
s 12
f 13/21/105 14/24/106 40/60/107 39/59/108
f 14/23/106 15/25/109 41/62/110 40/61/107
s 11
f 35/55/111 34/53/101 38/64/104 42/63/112
s 12
f 15/25/109 16/26/113 43/65/114 41/62/110
s 11
f 36/56/115 35/55/111 42/63/112 44/66/116
s 12
f 16/26/113 13/22/105 39/67/108 43/65/114
s 11
f 33/52/102 36/56/115 44/66/116 37/68/103
s 1
f 3/3/4 4/4/3 46/70/117 45/69/118
s 4
f 4/4/20 6/6/19 47/71/119 46/70/120
s 2
f 6/6/10 5/5/9 48/72/121 47/71/122
s 5
f 5/5/24 3/3/23 45/69/123 48/72/124
s off
f 57/81/125 58/82/126 59/83/127 60/84/128
f 58/82/129 61/85/130 62/86/131 59/83/132
f 61/85/133 63/87/134 64/88/135 62/86/136
f 63/87/137 57/81/138 60/84/139 64/88/140
f 49/73/141 50/74/142 54/78/143 53/77/144
f 50/74/145 51/75/146 55/79/147 54/78/148
f 51/75/149 52/76/150 56/80/151 55/79/152
f 52/76/153 49/73/154 53/77/155 56/80/156
s 13
f 45/69/157 46/70/158 58/82/159 57/81/160
s 14
f 50/74/161 49/73/162 60/84/163 59/83/164
s 13
f 46/70/158 47/71/165 61/85/166 58/82/159
s 14
f 51/75/167 50/74/161 59/83/164 62/86/168
s 13
f 47/71/165 48/72/169 63/87/170 61/85/166
s 14
f 52/76/171 51/75/167 62/86/168 64/88/172
s 13
f 48/72/169 45/69/157 57/81/160 63/87/170
s 14
f 49/73/162 52/76/171 64/88/172 60/84/163
s off
f 53/77/173 54/78/174 66/90/175 65/89/176
f 54/78/177 55/79/178 67/91/179 66/90/180
f 55/79/181 56/80/182 68/92/183 67/91/184
f 56/80/185 53/77/186 65/89/187 68/92/188
f 65/89/189 66/90/190 70/94/191 69/93/192
f 66/90/193 67/91/194 71/95/195 70/94/196
f 67/91/197 68/92/198 72/96/199 71/95/200
f 68/92/201 65/89/202 69/93/203 72/96/204
