# This file uses centimeters as units for non-parametric coordinates.

mtllib ControllRoom.mtl
g default
v -4.757037 -0.000000 3.379848
v 4.870058 -0.000000 3.379848
v -4.757037 3.425730 3.379848
v 4.870058 3.425730 3.379848
v -4.757037 3.425730 -5.302013
v 4.870058 3.425730 -5.302013
v -4.757037 -0.000000 -5.302013
v 4.870058 -0.000000 -5.302013
v -2.458260 -0.000000 6.553274
v 2.571281 -0.000000 6.553274
v 2.571281 1.599010 6.553274
v -2.458260 1.599010 6.553274
v -2.458260 -0.000000 13.969303
v 2.571281 -0.000000 13.969303
v 2.571281 1.599010 13.969303
v -2.458260 1.599010 13.969303
v -2.322758 3.425730 -7.211182
v 2.435779 3.425730 -7.211182
v 2.435779 -0.000000 -7.211182
v -2.322758 -0.000000 -7.211182
v -2.503206 3.425730 -7.733660
v 2.616227 3.425730 -7.733660
v 2.616227 -0.000000 -7.733660
v -2.503206 -0.000000 -7.733660
v 5.342904 -0.000000 -5.532092
v 5.399256 -0.000000 3.551381
v 5.342904 3.425730 -5.532092
v 5.399256 3.425730 3.551381
v -5.229883 -0.000000 -5.532092
v -5.286235 -0.000000 3.551381
v -5.286235 3.425730 3.551381
v -5.229883 3.425730 -5.532092
v 3.100479 1.599010 6.724808
v 3.100479 -0.000000 6.724808
v -2.987458 -0.000000 6.724808
v -2.987458 1.599010 6.724808
v 3.156079 1.599010 13.969303
v 3.156079 -0.000000 13.969303
v -3.043058 -0.000000 13.969303
v -3.043058 1.599010 13.969303
v -2.322758 6.095498 -7.211182
v 2.435779 6.095498 -7.211182
v 2.616227 6.095498 -7.733660
v -2.503206 6.095498 -7.733660
v 4.750472 5.098475 3.748782
v 4.870058 5.188395 -5.302013
v 5.279670 5.098475 3.920316
v 5.342904 5.188395 -5.532092
v -4.637451 6.005578 3.748782
v -4.757037 6.095498 -5.302013
v -5.229883 6.095498 -5.532092
v -5.166649 6.005578 3.920316
v 2.451695 3.271755 6.922209
v 2.980893 3.271755 7.093743
v -2.338674 4.178858 6.922209
v -2.867872 4.178858 7.093743
v 2.571281 3.361675 13.969303
v 3.156079 3.361675 13.969303
v -2.458260 4.268778 13.969303
v -3.043058 4.268778 13.969303
vt 0.375000 0.000000
vt 0.625000 0.000000
vt 0.375000 0.250000
vt 0.625000 0.250000
vt 0.375000 0.500000
vt 0.625000 0.500000
vt 0.375000 0.750000
vt 0.625000 0.750000
vt 0.375000 1.000000
vt 0.625000 1.000000
vt 0.875000 0.000000
vt 0.875000 0.250000
vt 0.125000 0.000000
vt 0.125000 0.250000
vt 0.375000 0.000000
vt 0.625000 0.000000
vt 0.625000 0.250000
vt 0.375000 0.250000
vt 0.375000 0.000000
vt 0.625000 0.000000
vt 0.625000 0.250000
vt 0.375000 0.250000
vt 0.375000 0.500000
vt 0.625000 0.500000
vt 0.625000 0.750000
vt 0.375000 0.750000
vt 0.375000 0.500000
vt 0.625000 0.500000
vt 0.625000 0.750000
vt 0.375000 0.750000
vt 0.625000 0.000000
vt 0.875000 0.000000
vt 0.875000 0.250000
vt 0.625000 0.250000
vt 0.125000 0.000000
vt 0.375000 0.000000
vt 0.375000 0.250000
vt 0.125000 0.250000
vt 0.625000 0.250000
vt 0.625000 0.000000
vt 0.375000 0.000000
vt 0.375000 0.250000
vt 0.625000 0.250000
vt 0.625000 0.000000
vt 0.375000 0.000000
vt 0.375000 0.250000
vt 0.625000 0.750000
vt 0.625000 0.500000
vt 0.375000 0.500000
vt 0.375000 0.750000
vt 0.375000 0.500000
vt 0.625000 0.500000
vt 0.625000 0.500000
vt 0.375000 0.500000
vt 0.875000 0.250000
vt 0.625000 0.250000
vt 0.625000 0.250000
vt 0.875000 0.250000
vt 0.375000 0.250000
vt 0.125000 0.250000
vt 0.125000 0.250000
vt 0.375000 0.250000
vt 0.625000 0.250000
vt 0.625000 0.250000
vt 0.375000 0.250000
vt 0.375000 0.250000
vt 0.625000 0.250000
vt 0.625000 0.250000
vt 0.375000 0.250000
vt 0.375000 0.250000
vt 0.625000 0.500000
vt 0.625000 0.500000
vt 0.375000 0.500000
vt 0.375000 0.500000
vn 0.000000 0.000000 1.000000
vn 0.000000 0.000000 1.000000
vn 0.000000 0.000000 1.000000
vn 0.000000 0.000000 1.000000
vn 0.000000 0.996205 0.087038
vn 0.000000 0.996205 0.087038
vn 0.000000 1.000000 0.000000
vn 0.000000 1.000000 0.000000
vn 0.000000 0.000000 -1.000000
vn 0.000000 0.000000 -1.000000
vn 0.000000 0.000000 -1.000000
vn 0.000000 0.000000 -1.000000
vn 0.000000 -1.000000 -0.000000
vn 0.000000 -1.000000 -0.000000
vn 0.000000 -1.000000 -0.000000
vn 0.000000 -1.000000 -0.000000
vn 0.989957 0.000000 0.141372
vn 0.970912 0.000000 -0.239439
vn 0.967358 0.009004 -0.253252
vn 0.990420 0.001536 0.138083
vn -0.970912 0.000000 -0.239439
vn -0.989957 0.000000 0.141372
vn -0.988536 0.000631 0.150982
vn -0.971479 0.007808 -0.236999
vn 0.000000 -1.000000 -0.000000
vn 0.000000 -1.000000 -0.000000
vn 0.815487 -0.021449 0.578378
vn 0.809848 0.000000 0.586640
vn 0.000000 0.966920 0.255081
vn 0.000000 0.966920 0.255081
vn -0.809848 0.000000 0.586640
vn -0.814571 -0.017843 0.579790
vn 0.000000 -1.000000 0.000000
vn 0.000000 -1.000000 0.000000
vn 0.999971 0.000000 -0.007675
vn 0.999779 0.017352 -0.011895
vn 0.999750 0.018703 -0.012224
vn 0.999971 0.000000 -0.007675
vn 0.000000 1.000000 0.000000
vn 0.000000 1.000000 0.000000
vn -0.999816 0.014185 -0.012901
vn -0.999971 0.000000 -0.007675
vn -0.999971 0.000000 -0.007675
vn -0.999806 0.014726 -0.013100
vn 0.000000 1.000000 0.000000
vn 0.000000 1.000000 0.000000
vn 0.628208 0.000000 -0.778046
vn 0.628208 0.000000 -0.778046
vn 0.000000 -1.000000 -0.000000
vn 0.000000 -1.000000 -0.000000
vn -0.628208 0.000000 -0.778045
vn -0.628208 0.000000 -0.778046
vn 0.000000 1.000000 0.000000
vn 0.080012 0.994371 0.069459
vn 0.080264 0.994335 0.069677
vn 0.000000 1.000000 0.000000
vn 0.000000 -1.000000 -0.000000
vn 0.000000 -1.000000 -0.000000
vn 0.000000 -1.000000 0.000000
vn 0.000000 -1.000000 0.000000
vn 0.054010 0.997095 0.053711
vn -0.045480 0.987916 0.148166
vn -0.046343 0.987484 0.150758
vn 0.055918 0.996904 0.055280
vn 0.000000 -1.000000 0.000000
vn 0.000000 -1.000000 0.000000
vn 0.045480 0.987916 0.148166
vn -0.000420 0.999974 0.007192
vn -0.000417 0.999974 0.007144
vn 0.046343 0.987484 0.150758
vn -0.052051 0.986342 0.156272
vn -0.049814 0.987542 0.149262
vn 0.000000 -1.000000 0.000000
vn 0.000000 -1.000000 0.000000
vn 0.052051 0.986342 0.156272
vn 0.049814 0.987542 0.149262
vn 0.001995 0.999914 -0.012958
vn 0.001995 0.999914 -0.012958
vn 0.000000 0.000000 1.000000
vn 0.000000 0.000000 1.000000
vn 0.000000 -1.000000 0.000000
vn 0.000000 -1.000000 0.000000
vn 0.000000 0.000000 1.000000
vn 0.000000 0.000000 1.000000
vn -0.001995 0.999914 -0.012958
vn -0.001995 0.999914 -0.012958
vn 0.000000 0.000000 1.000000
vn 0.000000 0.000000 1.000000
vn 0.000000 0.000000 1.000000
vn 0.000000 0.000000 1.000000
vn 0.000000 0.000000 -1.000000
vn 0.000000 0.000000 -1.000000
vn -0.999396 -0.034047 -0.006912
vn -0.999396 -0.034047 -0.006912
vn -0.999396 -0.034047 -0.006912
vn -0.999396 -0.034047 -0.006912
vn 0.999397 0.034731 0.000540
vn 0.999397 0.034731 0.000540
vn 0.999728 -0.022292 -0.006855
vn 0.999728 -0.022292 -0.006855
vn 0.999728 -0.022292 -0.006855
vn 0.999728 -0.022292 -0.006855
vn -0.999741 0.022740 0.000482
vn -0.999741 0.022740 0.000482
vn -0.825467 0.064660 -0.560734
vn -0.825467 0.064660 -0.560734
vn -0.825467 0.064660 -0.560734
vn -0.825467 0.064660 -0.560734
vn 0.825467 -0.064660 0.560734
vn 0.825467 -0.064660 0.560734
vn 0.820789 0.043407 -0.569580
vn 0.820789 0.043407 -0.569580
vn 0.820789 0.043407 -0.569580
vn 0.820789 0.043407 -0.569580
vn -0.820789 -0.043407 0.569580
vn -0.820789 -0.043407 0.569580
vn -0.999327 -0.035697 0.008485
vn -0.999327 -0.035697 0.008485
vn -0.999327 -0.035697 0.008485
vn -0.999327 -0.035697 0.008485
vn 0.000000 0.000000 1.000000
vn 0.000000 0.000000 1.000000
vn 0.999194 0.036561 -0.016564
vn 0.999194 0.036561 -0.016564
vn 0.999692 -0.023364 0.008411
vn 0.999692 -0.023364 0.008411
vn 0.999692 -0.023364 0.008411
vn 0.999692 -0.023364 0.008411
vn -0.999578 0.023929 -0.016490
vn -0.999578 0.023929 -0.016490
vn 0.000000 0.000000 1.000000
vn 0.000000 0.000000 1.000000
vn -0.617126 0.000000 0.786864
vn -0.617126 0.000000 0.786864
vn -0.617126 0.000000 0.786864
vn -0.617126 0.000000 0.786864
vn 0.628208 0.000000 -0.778046
vn 0.628208 0.000000 -0.778046
vn 0.617126 0.000000 0.786864
vn 0.617126 0.000000 0.786864
vn 0.617126 0.000000 0.786864
vn 0.617126 0.000000 0.786864
vn -0.628208 0.000000 -0.778045
vn -0.628208 0.000000 -0.778045
s 1
g pCube1
usemtl initialShadingGroup
f 13/19/1 14/20/2 15/21/3 16/22/4
s 2
f 3/3/5 4/4/6 6/6/7 5/5/8
s 3
f 21/27/9 22/28/10 23/29/11 24/30/12
s 4
f 7/7/13 8/8/14 2/10/15 1/9/16
s 5
f 26/31/17 25/32/18 27/33/19 28/34/20
s 6
f 29/35/21 30/36/22 31/37/23 32/38/24
s 4
f 1/1/16 2/2/15 10/16/25 9/15/26
s 5
f 26/31/17 28/34/20 33/39/27 34/40/28
s 2
f 4/4/6 3/3/5 12/18/29 11/17/30
s 6
f 31/37/23 30/36/22 35/41/31 36/42/32
s 4
f 9/15/26 10/16/25 14/20/33 13/19/34
s 7
f 34/40/35 33/39/36 37/43/37 38/44/38
s 2
f 11/17/30 12/18/29 16/22/39 15/21/40
s 8
f 36/42/41 35/41/42 39/45/43 40/46/44
s 2
f 5/5/8 6/6/7 18/24/45 17/23/46
s 5
f 27/48/19 25/47/18 23/29/47 22/28/48
s 4
f 8/8/14 7/7/13 20/26/49 19/25/50
s 6
f 29/50/21 32/49/24 21/27/51 24/30/52
s 9
f 41/51/53 42/52/54 43/53/55 44/54/56
s 4
f 19/25/50 20/26/49 24/30/57 23/29/58
f 2/2/15 8/11/14 25/32/59 26/31/60
s 9
f 46/55/61 45/56/62 47/57/63 48/58/64
s 4
f 7/13/13 1/1/16 30/36/65 29/35/66
s 9
f 49/59/67 50/60/68 51/61/69 52/62/70
f 45/56/62 53/63/71 54/64/72 47/57/63
s 4
f 10/16/25 2/2/15 26/31/60 34/40/73
f 1/1/16 9/15/26 35/41/74 30/36/65
s 9
f 55/65/75 49/59/67 52/62/70 56/66/76
f 53/63/71 57/67/77 58/68/78 54/64/72
s 1
f 15/21/3 14/20/2 38/44/79 37/43/80
s 4
f 14/20/33 10/16/25 34/40/73 38/44/81
f 9/15/26 13/19/34 39/45/82 35/41/74
s 1
f 13/19/1 16/22/4 40/46/83 39/45/84
s 9
f 59/69/85 55/65/75 56/66/76 60/70/86
s 4
f 8/8/14 19/25/50 23/29/58 25/47/59
s 9
f 42/52/54 46/71/61 48/72/64 43/53/55
f 50/73/68 41/51/53 44/54/56 51/74/69
s 4
f 20/26/49 7/7/13 29/50/66 24/30/57
s off
f 17/23/87 18/24/88 42/52/89 41/51/90
s 3
f 22/28/10 21/27/9 44/54/91 43/53/92
s off
f 6/12/93 4/4/94 45/56/95 46/55/96
s 5
f 28/34/20 27/33/19 48/58/97 47/57/98
s off
f 3/3/99 5/14/100 50/60/101 49/59/102
s 6
f 32/38/24 31/37/23 52/62/103 51/61/104
s off
f 4/4/105 11/17/106 53/63/107 45/56/108
s 5
f 33/39/27 28/34/20 47/57/109 54/64/110
s off
f 12/18/111 3/3/112 49/59/113 55/65/114
s 6
f 31/37/23 36/42/32 56/66/115 52/62/116
s off
f 11/17/117 15/21/118 57/67/119 53/63/120
s 1
f 15/21/3 37/43/80 58/68/121 57/67/122
s 7
f 37/43/37 33/39/36 54/64/123 58/68/124
s off
f 16/22/125 12/18/126 55/65/127 59/69/128
s 8
f 36/42/41 40/46/44 60/70/129 56/66/130
s 1
f 40/46/83 16/22/4 59/69/131 60/70/132
s off
f 18/24/133 6/6/134 46/71/135 42/52/136
s 5
f 27/48/19 22/28/48 43/53/137 48/72/138
s off
f 5/5/139 17/23/140 41/51/141 50/73/142
s 6
f 21/27/51 32/49/24 51/74/143 44/54/144
