# This file uses centimeters as units for non-parametric coordinates.

mtllib Lurker1.mtl
g default
v 0.322544 -0.010079 -0.499172
v -0.292874 -0.010079 -0.499172
v -0.600584 -0.010079 0.028311
v -0.292875 -0.010079 0.555794
v 0.322544 -0.010079 0.555794
v 0.630253 -0.010079 0.028311
v 0.056018 0.589921 -0.606102
v -0.547314 0.589921 -0.606102
v -0.848980 0.589921 -0.084539
v -0.547314 0.589921 0.437024
v 0.056017 0.589921 0.437024
v 0.357683 0.589921 -0.084539
v -0.581946 1.189921 -1.015313
v -1.112312 1.189921 -1.011454
v -1.380118 1.189921 -0.535458
v -1.124360 1.189921 -0.059715
v -0.586300 1.189921 -0.059882
v -0.315251 1.189921 -0.539638
v -0.557388 1.789921 -1.294663
v -1.015670 1.789921 -1.290248
v -1.255504 1.789921 -0.864312
v -1.032319 1.789921 -0.435638
v -0.566681 1.789921 -0.437213
v -0.329595 1.789921 -0.870353
v -0.300297 2.389922 -0.950015
v -0.698590 2.389921 -0.948422
v -0.901034 2.389922 -0.561901
v -0.704065 2.389921 -0.174275
v -0.301890 2.389921 -0.174326
v -0.100711 2.389921 -0.563694
v 0.183218 3.088550 -0.424827
v -0.153549 3.088550 -0.424827
v -0.321932 2.989921 -0.094526
v -0.153549 2.891293 0.235774
v 0.183218 2.891293 0.235774
v 0.351601 2.989921 -0.094526
v 0.847558 3.750418 0.330850
v 0.589321 3.750418 0.331306
v 0.474356 3.589922 0.563433
v 0.626910 3.429425 0.801909
v 0.900213 3.429425 0.799908
v 1.004383 3.589922 0.560829
v 0.925190 4.134805 1.053253
v 0.715760 4.134805 1.055432
v 0.625119 3.970605 1.240207
v 0.751289 3.806405 1.427246
v 0.971083 3.806405 1.423760
v 1.054095 3.970605 1.234613
v 0.687451 4.231411 2.107747
v 0.531215 4.231411 2.109688
v 0.461390 4.063836 2.194083
v 0.553639 3.896261 2.280231
v 0.718380 3.896261 2.277524
v 0.781905 4.063836 2.189467
v 0.083996 4.219143 2.838302
v -0.054327 4.219143 2.838302
v -0.125329 4.070003 2.921153
v -0.056198 3.920864 3.005415
v 0.085867 3.920864 3.005415
v 0.154998 4.070003 2.921153
v -0.230396 4.211674 3.754669
v -0.339162 4.211674 3.754669
v -0.555331 4.078869 3.780999
v -0.344260 3.946063 3.813266
v -0.233928 3.946063 3.813266
v 0.064868 4.078869 3.783341
v 0.014835 -0.010079 0.028311
v -0.151450 4.109846 4.697405
v -0.207808 4.222788 3.323104
v -0.077275 4.208492 3.299938
v -0.264482 4.067519 3.355842
v -0.204753 3.926547 3.413832
v -0.079207 3.926547 3.413832
v -0.016099 4.067519 3.355918
v -0.154652 4.210083 3.527205
v 0.133054 4.074197 3.580542
v -0.157688 3.936305 3.614013
v -0.275443 3.936305 3.614013
v -0.492502 4.073194 3.568356
v -0.273986 4.217231 3.538632
vt 0.578125 0.020934
vt 0.421875 0.020934
vt 0.343750 0.156250
vt 0.421875 0.291566
vt 0.578125 0.291566
vt 0.656250 0.156250
vt 0.375000 0.312500
vt 0.416667 0.312500
vt 0.458333 0.312500
vt 0.500000 0.312500
vt 0.541667 0.312500
vt 0.583333 0.312500
vt 0.625000 0.312500
vt 0.375000 0.350094
vt 0.416667 0.350094
vt 0.458333 0.350094
vt 0.500000 0.350094
vt 0.541667 0.350094
vt 0.583333 0.350094
vt 0.625000 0.350094
vt 0.375000 0.387688
vt 0.416667 0.387688
vt 0.458333 0.387688
vt 0.500000 0.387688
vt 0.541667 0.387688
vt 0.583333 0.387688
vt 0.625000 0.387688
vt 0.375000 0.425282
vt 0.416667 0.425282
vt 0.458333 0.425282
vt 0.500000 0.425282
vt 0.541667 0.425282
vt 0.583333 0.425282
vt 0.625000 0.425282
vt 0.375000 0.462876
vt 0.416667 0.462876
vt 0.458333 0.462876
vt 0.500000 0.462876
vt 0.541667 0.462876
vt 0.583333 0.462876
vt 0.625000 0.462876
vt 0.375000 0.500470
vt 0.416667 0.500470
vt 0.458333 0.500470
vt 0.500000 0.500470
vt 0.541667 0.500470
vt 0.583333 0.500470
vt 0.625000 0.500470
vt 0.375000 0.538064
vt 0.416667 0.538064
vt 0.458333 0.538064
vt 0.500000 0.538064
vt 0.541667 0.538064
vt 0.583333 0.538064
vt 0.625000 0.538064
vt 0.375000 0.575658
vt 0.416667 0.575658
vt 0.458333 0.575658
vt 0.500000 0.575658
vt 0.541667 0.575658
vt 0.583333 0.575658
vt 0.625000 0.575658
vt 0.375000 0.613252
vt 0.416667 0.613252
vt 0.458333 0.613252
vt 0.500000 0.613252
vt 0.541667 0.613252
vt 0.583333 0.613252
vt 0.625000 0.613252
vt 0.375000 0.650846
vt 0.416667 0.650846
vt 0.458333 0.650846
vt 0.500000 0.650846
vt 0.541667 0.650846
vt 0.583333 0.650846
vt 0.625000 0.650846
vt 0.375000 0.688440
vt 0.416667 0.688440
vt 0.458333 0.688440
vt 0.500000 0.688440
vt 0.541667 0.688440
vt 0.583333 0.688440
vt 0.625000 0.688440
vt 0.578125 0.708434
vt 0.421875 0.708434
vt 0.343750 0.843750
vt 0.421875 0.979066
vt 0.578125 0.979066
vt 0.656250 0.843750
vt 0.500000 0.150000
vt 0.500000 0.837500
vt 0.416667 0.670682
vt 0.375000 0.669643
vt 0.458333 0.669643
vt 0.500000 0.669643
vt 0.541667 0.669643
vt 0.583333 0.669643
vt 0.625000 0.669643
vt 0.625000 0.679041
vt 0.583333 0.680702
vt 0.541667 0.679041
vt 0.500000 0.679041
vt 0.458333 0.679041
vt 0.416667 0.679561
vt 0.375000 0.679041
vn 0.000000 -0.175452 -0.984488
vn 0.000000 -0.175452 -0.984488
vn -0.002069 -0.464179 -0.885739
vn -0.000736 -0.280066 -0.959980
vn -0.787257 -0.413640 -0.457306
vn -0.787257 -0.413640 -0.457306
vn -0.667019 -0.638559 -0.383833
vn -0.694332 -0.597989 -0.400390
vn -0.835768 -0.256505 0.485486
vn -0.835768 -0.256505 0.485486
vn -0.829875 -0.287969 0.477892
vn -0.816027 -0.347560 0.461847
vn 0.000000 0.194182 0.980966
vn 0.000000 0.194182 0.980965
vn 0.000033 0.326827 0.945084
vn 0.000085 0.532834 0.846220
vn 0.777896 0.436685 0.451868
vn 0.777896 0.436685 0.451868
vn 0.662354 0.644315 0.382291
vn 0.625291 0.692323 0.360140
vn 0.829033 0.284240 -0.481573
vn 0.829033 0.284240 -0.481573
vn 0.776702 0.445376 -0.445391
vn 0.813111 0.343102 -0.470246
vn -0.005685 -0.479998 -0.877251
vn -0.004466 -0.516220 -0.856444
vn -0.700838 -0.592039 -0.397889
vn -0.744189 -0.517968 -0.421773
vn -0.866314 -0.150892 0.476163
vn -0.867171 0.173406 0.466847
vn 0.000583 0.602323 0.798252
vn 0.000924 0.575711 0.817652
vn 0.673602 0.633841 0.380140
vn 0.647000 0.668971 0.365881
vn 0.874193 -0.003231 -0.485567
vn 0.824232 0.323539 -0.464718
vn -0.007866 -0.125814 -0.992023
vn -0.007599 0.097745 -0.995183
vn -0.851543 0.225642 -0.473244
vn -0.817140 0.358535 -0.451371
vn -0.834002 0.339109 0.435254
vn -0.827364 0.356961 0.433645
vn 0.001809 0.049426 0.998776
vn 0.001710 0.278192 0.960524
vn 0.864842 -0.175349 0.470427
vn 0.875393 -0.066328 0.478840
vn 0.863171 -0.192263 -0.466873
vn 0.866755 -0.176158 -0.466588
vn -0.004798 0.529928 -0.848029
vn -0.003074 0.570561 -0.821250
vn -0.675796 0.669644 -0.308021
vn -0.673253 0.674995 -0.301848
vn -0.800595 0.393102 0.452237
vn -0.838402 0.315797 0.444245
vn 0.000625 -0.558757 0.829331
vn 0.001380 -0.451957 0.892038
vn 0.709900 -0.627090 0.320625
vn 0.711338 -0.624360 0.322757
vn 0.873033 -0.142923 -0.466248
vn 0.857108 -0.213363 -0.468873
vn -0.001452 0.638855 -0.769326
vn -0.000867 0.711491 -0.702694
vn -0.649358 0.751082 -0.119205
vn -0.650064 0.754637 -0.089105
vn -0.736811 0.391743 0.551041
vn -0.762983 0.418865 0.492350
vn 0.001752 -0.705349 0.708858
vn 0.000488 -0.652214 0.758035
vn 0.655019 -0.750931 0.083974
vn 0.653692 -0.748137 0.113923
vn 0.834875 -0.239196 -0.495751
vn 0.813938 -0.219797 -0.537768
vn -0.001080 0.791471 -0.611206
vn -0.001745 0.833064 -0.553173
vn -0.740389 0.672109 -0.009690
vn -0.739977 0.672565 -0.009526
vn -0.876005 -0.013790 0.482106
vn -0.797641 0.235680 0.555179
vn 0.004600 -0.816963 0.576671
vn 0.003265 -0.766560 0.642165
vn 0.763075 -0.645954 0.021461
vn 0.773950 -0.632661 0.027224
vn 0.854790 -0.058705 -0.515643
vn 0.890192 0.145685 -0.431665
vn -0.001861 0.959152 -0.282886
vn -0.001929 0.954338 -0.298724
vn -0.919070 0.366576 -0.144681
vn -0.902386 0.416812 -0.109391
vn -0.861664 -0.500751 0.082363
vn -0.885136 -0.420135 0.200050
vn 0.004127 -0.936595 0.350390
vn 0.003849 -0.946686 0.322135
vn 0.933019 -0.317112 0.170049
vn 0.940942 -0.250953 0.227270
vn 0.855694 0.502339 -0.124267
vn 0.834070 0.550582 -0.034442
vn -0.000453 0.999329 -0.036623
vn -0.000840 0.997306 -0.073348
vn -0.872513 0.132416 -0.470306
vn -0.921697 0.232483 -0.310527
vn -0.736084 -0.612251 -0.288669
vn -0.731271 -0.612066 -0.301029
vn 0.001439 -0.995743 0.092165
vn 0.000896 -0.997918 0.064494
vn 0.908012 -0.115017 0.402846
vn 0.842477 -0.037554 0.537422
vn 0.712851 0.623244 0.321576
vn 0.720896 0.624708 0.300082
vn 0.000000 -1.000000 0.000000
vn 0.000000 -1.000000 -0.000000
vn 0.000000 -1.000000 -0.000000
vn 0.000000 -1.000000 0.000000
vn 0.000000 -1.000000 -0.000000
vn 0.000000 -1.000000 -0.000000
vn 0.000000 -1.000000 -0.000000
vn 0.011551 0.999758 0.018747
vn 0.034321 0.999160 0.022411
vn -0.814530 0.061123 -0.576893
vn -0.879245 0.167293 -0.446029
vn -0.690131 -0.571286 -0.444243
vn -0.688176 -0.572037 -0.446304
vn 0.000249 -0.999531 0.030620
vn 0.000122 -0.999756 0.022077
vn 0.787435 -0.002332 0.616393
vn 0.853443 -0.108749 0.509714
vn 0.677176 0.573536 0.460966
vn 0.676976 0.573605 0.461173
vn -0.916471 0.273508 -0.292018
vn -0.916471 0.273508 -0.292018
vn -0.819942 -0.500464 -0.277905
vn -0.819942 -0.500464 -0.277905
vn 0.000000 -0.999903 0.013913
vn 0.000000 -0.999903 0.013913
vn -0.430594 -0.865973 0.254321
vn 0.302636 -0.941821 0.146237
vn 0.529553 0.160766 0.832903
vn 0.965716 0.131042 0.224101
vn 0.289125 0.954040 0.078838
vn 0.000000 -0.998814 0.048688
vn 0.000000 -0.998814 0.048688
vn 0.000000 -0.998814 0.048688
vn 0.000000 -0.998814 0.048688
vn 0.000000 -0.998803 0.048915
vn 0.000000 -0.998803 0.048915
vn 0.000000 -0.998803 0.048915
vn 0.000000 -0.998803 0.048915
vn 0.055296 0.998137 0.025778
vn 0.055296 0.998137 0.025778
vn 0.902654 -0.234644 0.360773
vn 0.902654 -0.234644 0.360773
vn 0.802981 0.511913 0.305232
vn 0.802981 0.511913 0.305232
vn -0.387439 0.905150 0.174913
vn -0.899120 0.199653 0.389514
vn 0.639405 0.760150 -0.115468
vn 0.639405 0.760150 -0.115468
vn 0.639405 0.760150 -0.115468
vn 0.639405 0.760150 -0.115468
vn 0.606199 -0.792208 -0.070199
vn 0.606199 -0.792208 -0.070199
vn 0.606199 -0.792208 -0.070199
vn 0.606200 -0.792208 -0.070199
vn -0.575649 -0.718821 -0.389776
vn -0.575649 -0.718821 -0.389776
vn -0.575649 -0.718821 -0.389776
vn -0.575649 -0.718821 -0.389776
vn -0.694245 0.538700 -0.477311
vn -0.694245 0.538700 -0.477311
vn -0.694245 0.538701 -0.477311
vn -0.694245 0.538700 -0.477311
vn 0.090711 0.995140 0.038321
vn 0.090711 0.995140 0.038321
vn 0.090711 0.995140 0.038321
vn 0.090711 0.995140 0.038321
vn 0.401407 0.907864 0.121061
vn 0.401407 0.907864 0.121061
vn 0.401407 0.907864 0.121061
vn 0.401407 0.907864 0.121061
vn 0.426440 -0.885402 0.184964
vn 0.426440 -0.885402 0.184964
vn 0.426440 -0.885402 0.184964
vn 0.426440 -0.885402 0.184964
vn -0.511119 -0.849386 -0.131534
vn -0.511119 -0.849385 -0.131534
vn -0.511119 -0.849386 -0.131534
vn -0.511119 -0.849385 -0.131534
vn -0.544871 0.822540 -0.162925
vn -0.544871 0.822540 -0.162925
vn -0.544871 0.822540 -0.162925
vn -0.544871 0.822540 -0.162925
vn 0.032278 0.999295 0.019192
vn 0.032278 0.999295 0.019192
vn 0.032278 0.999295 0.019192
vn 0.032278 0.999295 0.019192
s 1
g pCylinder1
usemtl initialShadingGroup
f 1/7/1 2/8/2 8/15/3 7/14/4
s 2
f 2/8/5 3/9/6 9/16/7 8/15/8
s 3
f 3/9/9 4/10/10 10/17/11 9/16/12
s 4
f 4/10/13 5/11/14 11/18/15 10/17/16
s 5
f 5/11/17 6/12/18 12/19/19 11/18/20
s 6
f 6/12/21 1/13/22 7/20/23 12/19/24
s 1
f 7/14/4 8/15/3 14/22/25 13/21/26
s 2
f 8/15/8 9/16/7 15/23/27 14/22/28
s 3
f 9/16/12 10/17/11 16/24/29 15/23/30
s 4
f 10/17/16 11/18/15 17/25/31 16/24/32
s 5
f 11/18/20 12/19/19 18/26/33 17/25/34
s 6
f 12/19/24 7/20/23 13/27/35 18/26/36
s 1
f 13/21/26 14/22/25 20/29/37 19/28/38
s 2
f 14/22/28 15/23/27 21/30/39 20/29/40
s 3
f 15/23/30 16/24/29 22/31/41 21/30/42
s 4
f 16/24/32 17/25/31 23/32/43 22/31/44
s 5
f 17/25/34 18/26/33 24/33/45 23/32/46
s 6
f 18/26/36 13/27/35 19/34/47 24/33/48
s 1
f 19/28/38 20/29/37 26/36/49 25/35/50
s 2
f 20/29/40 21/30/39 27/37/51 26/36/52
s 3
f 21/30/42 22/31/41 28/38/53 27/37/54
s 4
f 22/31/44 23/32/43 29/39/55 28/38/56
s 5
f 23/32/46 24/33/45 30/40/57 29/39/58
s 6
f 24/33/48 19/34/47 25/41/59 30/40/60
s 1
f 25/35/50 26/36/49 32/43/61 31/42/62
s 2
f 26/36/52 27/37/51 33/44/63 32/43/64
s 3
f 27/37/54 28/38/53 34/45/65 33/44/66
s 4
f 28/38/56 29/39/55 35/46/67 34/45/68
s 5
f 29/39/58 30/40/57 36/47/69 35/46/70
s 6
f 30/40/60 25/41/59 31/48/71 36/47/72
s 1
f 31/42/62 32/43/61 38/50/73 37/49/74
s 2
f 32/43/64 33/44/63 39/51/75 38/50/76
s 3
f 33/44/66 34/45/65 40/52/77 39/51/78
s 4
f 34/45/68 35/46/67 41/53/79 40/52/80
s 5
f 35/46/70 36/47/69 42/54/81 41/53/82
s 6
f 36/47/72 31/48/71 37/55/83 42/54/84
s 1
f 37/49/74 38/50/73 44/57/85 43/56/86
s 2
f 38/50/76 39/51/75 45/58/87 44/57/88
s 3
f 39/51/78 40/52/77 46/59/89 45/58/90
s 4
f 40/52/80 41/53/79 47/60/91 46/59/92
s 5
f 41/53/82 42/54/81 48/61/93 47/60/94
s 6
f 42/54/84 37/55/83 43/62/95 48/61/96
s 1
f 43/56/86 44/57/85 50/64/97 49/63/98
s 2
f 44/57/88 45/58/87 51/65/99 50/64/100
s 3
f 45/58/90 46/59/89 52/66/101 51/65/102
s 4
f 46/59/92 47/60/91 53/67/103 52/66/104
s 5
f 47/60/94 48/61/93 54/68/105 53/67/106
s 6
f 48/61/96 43/62/95 49/69/107 54/68/108
s 7
f 2/2/109 1/1/110 67/90/111
f 3/3/112 2/2/109 67/90/111
f 4/4/113 3/3/112 67/90/111
f 5/5/114 4/4/113 67/90/111
f 6/6/115 5/5/114 67/90/111
f 1/1/110 6/6/115 67/90/111
s 1
f 55/70/116 49/63/98 50/64/97 56/71/117
s 2
f 56/71/118 50/64/100 51/65/99 57/72/119
s 3
f 51/65/102 52/66/101 58/73/120 57/72/121
s 4
f 52/66/104 53/67/103 59/74/122 58/73/123
s 5
f 53/67/106 54/68/105 60/75/124 59/74/125
s 6
f 60/75/126 54/68/108 49/69/107 55/76/127
s 2
f 57/72/119 71/94/128 69/92/129 56/71/118
s 3
f 58/73/120 72/95/130 71/94/131 57/72/121
s 4
f 73/96/132 72/95/133 58/73/123 59/74/122
s 8
f 64/85/134 65/84/135 68/91/136
f 65/84/135 66/89/137 68/91/136
f 66/89/137 61/88/138 68/91/136
s off
f 77/101/139 78/102/140 72/95/141 73/96/142
f 78/102/143 77/101/144 65/81/145 64/80/146
s 1
f 56/71/117 69/92/147 70/93/148 55/70/116
s 5
f 74/97/149 73/96/150 59/74/125 60/75/124
s 6
f 70/98/151 74/97/152 60/75/126 55/76/127
s 8
f 61/88/138 62/87/153 68/91/136
f 62/87/153 63/86/154 68/91/136
f 63/86/154 64/85/134 68/91/136
s off
f 75/99/155 76/100/156 74/97/157 70/98/158
f 76/100/159 77/101/160 73/96/161 74/97/162
f 78/102/163 79/103/164 71/94/165 72/95/166
f 71/94/167 79/103/168 80/104/169 69/92/170
f 75/105/171 70/93/172 69/92/173 80/104/174
f 76/100/175 75/99/176 61/83/177 66/82/178
f 77/101/179 76/100/180 66/82/181 65/81/182
f 79/103/183 78/102/184 64/80/185 63/79/186
f 62/78/187 80/104/188 79/103/189 63/79/190
f 61/77/191 75/105/192 80/104/193 62/78/194
