# This file uses centimeters as units for non-parametric coordinates.

mtllib room2a.mtl
g default
v -3.758535 -0.000000 9.283953
v -3.099929 -0.000000 9.283953
v -0.499261 -0.000000 9.283953
v 1.130377 -0.000000 9.283953
v 3.731046 -0.000000 9.283953
v 4.389652 -0.000000 9.283953
v -3.758535 1.162353 9.283953
v -3.099929 1.162353 9.283953
v -0.499261 1.162353 9.283953
v 1.130377 1.162353 9.283953
v 3.731046 1.162353 9.283953
v 4.389652 1.162353 9.283953
v -5.044564 1.162353 6.940595
v -4.450450 1.162353 6.940595
v -0.756466 1.162353 6.940595
v 1.387583 1.162353 6.940595
v 5.081566 1.162353 6.940595
v 5.675681 1.162353 6.940595
v -9.163575 1.162353 4.597237
v -8.196632 1.162353 4.597237
v -1.580269 1.162353 4.597237
v 2.211385 1.162353 4.597237
v 8.827748 1.162353 4.597237
v 9.794692 1.162353 4.597237
v -5.058793 1.162353 2.253879
v -4.664751 1.162353 2.253879
v -0.759312 1.162353 2.253879
v 1.390429 1.162353 2.253879
v 5.295867 1.162353 2.253879
v 5.689909 1.162353 2.253879
v -5.709927 1.162353 -0.089480
v -5.268145 1.162353 -0.089480
v -0.889539 1.162353 -0.089480
v 1.520656 1.162353 -0.089480
v 5.899261 1.162353 -0.089480
v 6.341043 1.162353 -0.089480
v -6.394317 1.162353 -2.432838
v -6.033180 1.162353 -2.432838
v -1.026417 1.162353 -2.432838
v 1.657533 1.162353 -2.432838
v 6.664297 1.162353 -2.432838
v 7.025433 1.162353 -2.432838
v -7.257180 1.162353 -4.776196
v -6.849605 1.162353 -4.776196
v -1.198989 1.162353 -4.776196
v 1.830106 1.162353 -4.776196
v 7.480721 1.162353 -4.776196
v 7.888297 1.162353 -4.776196
v -4.112980 1.162353 -7.119554
v -3.638909 1.162353 -7.119554
v -0.570149 1.162353 -7.119554
v 1.201266 1.162353 -7.119554
v 4.270026 1.162353 -7.119554
v 4.744096 1.162353 -7.119554
v -4.112980 -0.000000 -7.119554
v 4.744096 -0.000000 -7.119554
v -6.986626 -0.000000 -4.776196
v 7.888297 -0.000000 -4.776196
v -6.146207 -0.000000 -2.432838
v 7.025433 -0.000000 -2.432838
v -5.709927 -0.000000 -0.089479
v 6.341043 -0.000000 -0.089479
v -5.058793 -0.000000 2.253879
v 5.689909 -0.000000 2.253879
v -9.163575 -0.000000 4.597237
v 9.794692 -0.000000 4.597237
v -5.044564 -0.000000 6.940595
v 5.675681 -0.000000 6.940595
v -1.090930 1.162353 -8.777500
v -0.716973 1.162353 -8.777500
v -0.787098 -0.000000 -8.777500
v -1.090930 -0.000000 -8.777500
v 0.034261 1.162353 -8.777500
v 0.034261 -0.000000 -8.777500
v 0.596856 1.162353 -8.777500
v 0.596856 -0.000000 -8.777500
v 1.348090 1.162353 -8.777500
v 1.418215 -0.000000 -8.777500
v 1.722046 1.162353 -8.777500
v 1.722046 -0.000000 -8.777500
v -1.090930 1.162353 -14.696598
v -0.708768 1.162353 -14.696598
v -0.708768 -0.000000 -14.696598
v -1.090930 -0.000000 -14.696598
v 0.034261 1.162353 -14.696598
v 0.034261 -0.000000 -14.696598
v 0.596856 1.162353 -14.696598
v 0.596856 -0.000000 -14.696598
v 1.339885 1.162353 -14.696598
v 1.339885 -0.000000 -14.696598
v 1.722046 1.162353 -14.696598
v 1.722046 -0.000000 -14.696598
v -3.758535 4.135110 9.283953
v -3.099929 4.135110 9.283953
v -4.450450 4.135110 6.940595
v -5.044564 4.135110 6.940595
v -8.196632 4.135110 4.597236
v -9.163575 4.135110 4.597236
v -4.664751 4.135110 2.253879
v -5.058793 4.135110 2.253879
v -5.268145 4.135110 -0.089480
v -5.709927 4.135110 -0.089480
v -6.033180 4.135110 -2.432838
v -6.394317 4.135110 -2.432838
v -6.849605 4.135110 -4.776196
v -7.257180 4.135110 -4.776196
v -3.638909 4.135110 -7.119554
v -4.112980 4.135110 -7.119554
v -0.716973 4.135110 -8.777500
v -1.090930 4.135110 -8.777500
v -0.708768 4.135110 -14.696598
v -1.090930 4.135110 -14.696598
v 3.731046 4.135110 9.283953
v 4.389652 4.135110 9.283953
v 5.675681 4.135110 6.940595
v 5.081566 4.135110 6.940595
v 9.794692 4.135110 4.597236
v 8.827748 4.135110 4.597236
v 5.689909 4.135110 2.253879
v 5.295867 4.135110 2.253879
v 6.341043 4.135110 -0.089480
v 5.899261 4.135110 -0.089480
v 7.025433 4.135110 -2.432838
v 6.664297 4.135110 -2.432838
v 7.888297 4.135110 -4.776196
v 7.480721 4.135110 -4.776196
v 4.744096 4.135110 -7.119554
v 4.270026 4.135110 -7.119554
v 1.722046 4.135110 -8.777500
v 1.348090 4.135110 -8.777500
v 1.722046 4.135110 -14.696598
v 1.339885 4.135110 -14.696598
vt 0.375000 0.000000
vt 0.425000 0.000000
vt 0.475000 0.000000
vt 0.525000 0.000000
vt 0.575000 0.000000
vt 0.625000 0.000000
vt 0.375000 0.250000
vt 0.425000 0.250000
vt 0.475000 0.250000
vt 0.525000 0.250000
vt 0.575000 0.250000
vt 0.625000 0.250000
vt 0.375000 0.285714
vt 0.425000 0.285714
vt 0.475000 0.285714
vt 0.525000 0.285714
vt 0.575000 0.285714
vt 0.625000 0.285714
vt 0.375000 0.321429
vt 0.425000 0.321429
vt 0.475000 0.321429
vt 0.525000 0.321429
vt 0.575000 0.321429
vt 0.625000 0.321429
vt 0.375000 0.357143
vt 0.425000 0.357143
vt 0.475000 0.357143
vt 0.525000 0.357143
vt 0.575000 0.357143
vt 0.625000 0.357143
vt 0.375000 0.392857
vt 0.425000 0.392857
vt 0.475000 0.392857
vt 0.525000 0.392857
vt 0.575000 0.392857
vt 0.625000 0.392857
vt 0.375000 0.428571
vt 0.425000 0.428571
vt 0.475000 0.428571
vt 0.525000 0.428571
vt 0.575000 0.428571
vt 0.625000 0.428571
vt 0.375000 0.464286
vt 0.425000 0.464286
vt 0.475000 0.464286
vt 0.525000 0.464286
vt 0.575000 0.464286
vt 0.625000 0.464286
vt 0.375000 0.500000
vt 0.425000 0.500000
vt 0.475000 0.500000
vt 0.525000 0.500000
vt 0.575000 0.500000
vt 0.625000 0.500000
vt 0.375000 0.750000
vt 0.625000 0.750000
vt 0.375000 0.785714
vt 0.625000 0.785714
vt 0.375000 0.821429
vt 0.625000 0.821429
vt 0.375000 0.857143
vt 0.625000 0.857143
vt 0.375000 0.892857
vt 0.625000 0.892857
vt 0.375000 0.928571
vt 0.625000 0.928571
vt 0.375000 0.964286
vt 0.625000 0.964286
vt 0.375000 1.000000
vt 0.425000 1.000000
vt 0.475000 1.000000
vt 0.525000 1.000000
vt 0.575000 1.000000
vt 0.625000 1.000000
vt 0.875000 0.000000
vt 0.839286 0.000000
vt 0.803571 0.000000
vt 0.767857 0.000000
vt 0.732143 0.000000
vt 0.696429 0.000000
vt 0.660714 0.000000
vt 0.875000 0.250000
vt 0.839286 0.250000
vt 0.803571 0.250000
vt 0.767857 0.250000
vt 0.732143 0.250000
vt 0.696429 0.250000
vt 0.660714 0.250000
vt 0.125000 0.000000
vt 0.160714 0.000000
vt 0.196429 0.000000
vt 0.232143 0.000000
vt 0.267857 0.000000
vt 0.303571 0.000000
vt 0.339286 0.000000
vt 0.125000 0.250000
vt 0.160714 0.250000
vt 0.196429 0.250000
vt 0.232143 0.250000
vt 0.267857 0.250000
vt 0.303571 0.250000
vt 0.339286 0.250000
vt 0.375000 0.500000
vt 0.425000 0.500000
vt 0.425000 0.750000
vt 0.375000 0.750000
vt 0.475000 0.500000
vt 0.475000 0.750000
vt 0.525000 0.500000
vt 0.525000 0.750000
vt 0.575000 0.500000
vt 0.575000 0.750000
vt 0.625000 0.500000
vt 0.625000 0.750000
vt 0.375000 0.500000
vt 0.425000 0.500000
vt 0.425000 0.750000
vt 0.375000 0.750000
vt 0.475000 0.500000
vt 0.475000 0.750000
vt 0.525000 0.500000
vt 0.525000 0.750000
vt 0.575000 0.500000
vt 0.575000 0.750000
vt 0.625000 0.500000
vt 0.625000 0.750000
vt 0.375000 0.250000
vt 0.425000 0.250000
vt 0.425000 0.285714
vt 0.375000 0.285714
vt 0.575000 0.250000
vt 0.625000 0.250000
vt 0.625000 0.285714
vt 0.575000 0.285714
vt 0.425000 0.321429
vt 0.375000 0.321429
vt 0.625000 0.321429
vt 0.575000 0.321429
vt 0.425000 0.357143
vt 0.375000 0.357143
vt 0.625000 0.357143
vt 0.575000 0.357143
vt 0.425000 0.392857
vt 0.375000 0.392857
vt 0.625000 0.392857
vt 0.575000 0.392857
vt 0.425000 0.428571
vt 0.375000 0.428571
vt 0.625000 0.428571
vt 0.575000 0.428571
vt 0.425000 0.464286
vt 0.375000 0.464286
vt 0.625000 0.464286
vt 0.575000 0.464286
vt 0.425000 0.500000
vt 0.375000 0.500000
vt 0.625000 0.500000
vt 0.575000 0.500000
vt 0.425000 0.500000
vt 0.375000 0.500000
vt 0.625000 0.500000
vt 0.575000 0.500000
vt 0.425000 0.500000
vt 0.375000 0.500000
vt 0.625000 0.500000
vt 0.575000 0.500000
vn 0.000000 0.000000 1.000000
vn 0.000000 0.000000 1.000000
vn 0.000000 0.000000 1.000000
vn 0.000000 0.000000 1.000000
vn 0.000000 0.000000 1.000000
vn 0.000000 0.000000 1.000000
vn 0.000000 0.000000 1.000000
vn 0.000000 0.000000 1.000000
vn 0.000000 0.000000 1.000000
vn 0.000000 0.000000 1.000000
vn 0.000000 0.000000 1.000000
vn 0.000000 0.000000 1.000000
vn 0.000000 1.000000 0.000000
vn 0.000000 1.000000 0.000000
vn 0.000000 1.000000 0.000000
vn 0.000000 1.000000 0.000000
vn 0.000000 1.000000 0.000000
vn 0.000000 1.000000 0.000000
vn 0.000000 1.000000 -0.000000
vn 0.000000 1.000000 -0.000000
vn 0.000000 1.000000 -0.000000
vn 0.000000 1.000000 -0.000000
vn 0.000000 1.000000 0.000000
vn 0.000000 1.000000 0.000000
vn 0.000000 1.000000 0.000000
vn 0.000000 1.000000 0.000000
vn 0.000000 1.000000 0.000000
vn 0.000000 1.000000 0.000000
vn 0.000000 1.000000 0.000000
vn 0.000000 1.000000 0.000000
vn 0.000000 1.000000 0.000000
vn 0.000000 1.000000 0.000000
vn 0.000000 1.000000 0.000000
vn 0.000000 1.000000 0.000000
vn 0.000000 1.000000 0.000000
vn 0.000000 1.000000 0.000000
vn 0.000000 1.000000 0.000000
vn 0.000000 1.000000 0.000000
vn 0.000000 1.000000 -0.000000
vn 0.000000 1.000000 -0.000000
vn 0.000000 1.000000 -0.000000
vn 0.000000 1.000000 -0.000000
vn 0.000000 1.000000 0.000000
vn 0.000000 1.000000 0.000000
vn 0.000000 1.000000 -0.000000
vn 0.000000 1.000000 -0.000000
vn 0.000000 1.000000 -0.000000
vn 0.000000 1.000000 -0.000000
vn 0.000000 1.000000 -0.000000
vn 0.000000 1.000000 -0.000000
vn 0.000000 1.000000 -0.000000
vn 0.000000 1.000000 -0.000000
vn 0.000000 1.000000 0.000000
vn 0.000000 1.000000 0.000000
vn 0.000000 1.000000 -0.000000
vn 0.000000 1.000000 0.000000
vn 0.000000 1.000000 0.000000
vn 0.000000 1.000000 -0.000000
vn 0.000000 1.000000 0.000000
vn 0.000000 1.000000 -0.000000
vn 0.000000 1.000000 0.000000
vn 0.000000 1.000000 0.000000
vn 0.000000 1.000000 0.000000
vn 0.000000 1.000000 0.000000
vn 0.000000 1.000000 0.000000
vn 0.000000 1.000000 0.000000
vn 0.000000 1.000000 0.000000
vn 0.000000 1.000000 0.000000
vn 0.000000 1.000000 0.000000
vn 0.000000 1.000000 0.000000
vn 0.000000 1.000000 -0.000000
vn 0.000000 1.000000 -0.000000
vn 0.000000 1.000000 -0.000000
vn 0.000000 1.000000 -0.000000
vn 0.000000 1.000000 0.000000
vn 0.000000 1.000000 0.000000
vn 0.000000 0.000000 -1.000000
vn 0.000000 0.000000 -1.000000
vn 0.000000 0.000000 -1.000000
vn 0.000000 0.000000 -1.000000
vn 0.000000 0.000000 -1.000000
vn 0.000000 0.000000 -1.000000
vn 0.000000 0.000000 -1.000000
vn 0.000000 0.000000 -1.000000
vn 0.000000 0.000000 -1.000000
vn 0.000000 0.000000 -1.000000
vn 0.000000 0.000000 -1.000000
vn 0.000000 0.000000 -1.000000
vn 0.899136 0.000000 -0.437669
vn 0.597583 0.000000 -0.801807
vn 0.544342 0.000000 -0.838864
vn 0.899136 0.000000 -0.437669
vn 0.949590 0.000000 0.313494
vn 0.949590 0.000000 0.313494
vn 0.961716 0.000000 0.274050
vn 0.961716 0.000000 0.274050
vn 0.805033 -0.000000 -0.593230
vn 0.805033 -0.000000 -0.593230
vn 0.999995 -0.000000 0.003036
vn 0.999995 -0.000000 0.003036
vn 0.655118 0.000000 0.755527
vn 0.655118 0.000000 0.755527
vn 0.876661 0.000000 0.481109
vn 0.876661 0.000000 0.481109
vn -0.612879 -0.071328 -0.786951
vn -0.889783 -0.149638 -0.431155
vn -0.903601 -0.040937 -0.426414
vn -0.546682 -0.010474 -0.837275
vn -0.946607 -0.154186 0.283128
vn -0.950711 -0.044856 0.306817
vn -0.966888 -0.051596 0.249931
vn -0.963482 -0.014452 0.267384
vn -0.805033 -0.000000 -0.593230
vn -0.805033 0.000000 -0.593230
vn -0.999995 0.000000 0.003036
vn -0.999995 0.000000 0.003036
vn -0.655118 0.000000 0.755527
vn -0.655118 0.000000 0.755527
vn -0.876661 0.000000 0.481109
vn -0.876661 0.000000 0.481109
vn 0.000000 1.000000 0.000000
vn 0.000000 1.000000 0.000000
vn -0.480987 0.000000 -0.876728
vn -0.480987 0.000000 -0.876728
vn -0.480987 0.000000 -0.876728
vn 0.000000 1.000000 -0.000000
vn 0.000000 1.000000 -0.000000
vn 0.000000 1.000000 -0.000000
vn 0.000000 1.000000 -0.000000
vn 0.000000 1.000000 0.000000
vn 0.000000 1.000000 0.000000
vn 0.480987 0.000000 -0.876728
vn 0.480987 0.000000 -0.876728
vn 0.480987 0.000000 -0.876728
vn 0.000000 -1.000000 -0.000000
vn 0.000000 -1.000000 -0.000000
vn 0.000000 -1.000000 -0.000000
vn 0.000000 -1.000000 -0.000000
vn 0.000000 -1.000000 -0.000000
vn 0.000000 -1.000000 -0.000000
vn 0.000000 -1.000000 -0.000000
vn 0.000000 -1.000000 -0.000000
vn 0.000000 -1.000000 -0.000000
vn 0.000000 -1.000000 -0.000000
vn 0.000000 -1.000000 -0.000000
vn 0.000000 -1.000000 -0.000000
vn 0.000000 -1.000000 -0.000000
vn 0.000000 -1.000000 -0.000000
vn 0.000000 -1.000000 -0.000000
vn 0.000000 -1.000000 -0.000000
vn 0.000000 -1.000000 -0.000000
vn 0.000000 -1.000000 -0.000000
vn 0.000000 -1.000000 -0.000000
vn 0.000000 -1.000000 -0.000000
vn 0.000000 -1.000000 -0.000000
vn 0.000000 -1.000000 -0.000000
vn 0.000000 -1.000000 -0.000000
vn 0.000000 -1.000000 -0.000000
vn 0.000000 -1.000000 -0.000000
vn 0.000000 -1.000000 -0.000000
vn 0.000000 1.000000 0.000000
vn 0.000000 1.000000 0.000000
vn -1.000000 0.000000 0.000000
vn -1.000000 0.000000 0.000000
vn -1.000000 0.000000 0.000000
vn -1.000000 0.000000 0.000000
vn 0.000000 1.000000 -0.000000
vn 0.000000 1.000000 -0.000000
vn 0.000000 1.000000 -0.000000
vn 0.000000 1.000000 -0.000000
vn 0.000000 1.000000 0.000000
vn 0.000000 1.000000 0.000000
vn 1.000000 0.000000 0.000000
vn 1.000000 0.000000 0.000000
vn 1.000000 0.000000 0.000000
vn 1.000000 0.000000 0.000000
vn 0.000000 -1.000000 -0.000000
vn 0.000000 -1.000000 -0.000000
vn 0.000000 -1.000000 -0.000000
vn 0.000000 -1.000000 -0.000000
vn 0.000000 -1.000000 -0.000000
vn 0.000000 -1.000000 -0.000000
vn 0.000000 0.000000 1.000000
vn 0.000000 0.000000 1.000000
vn 0.866412 0.000000 -0.499329
vn 0.676881 -0.000000 -0.736093
vn 0.676881 -0.000000 -0.736093
vn 0.866412 0.000000 -0.499329
vn -0.876661 0.000000 0.481109
vn -0.876661 0.000000 0.481109
vn 0.530324 -0.000000 -0.847795
vn 0.530324 -0.000000 -0.847795
vn -0.494490 0.000000 0.869183
vn -0.494490 0.000000 0.869183
vn 0.552865 0.000000 0.833271
vn 0.552865 0.000000 0.833271
vn 0.552865 0.000000 0.833271
vn 0.552865 0.000000 0.833271
vn -0.495783 0.000000 -0.868447
vn -0.495783 0.000000 -0.868447
vn 0.968412 0.000000 -0.249358
vn 0.959919 0.000000 -0.280278
vn 0.959919 0.000000 -0.280278
vn 0.968412 0.000000 -0.249358
vn -0.963497 0.000000 0.267721
vn -0.961716 0.000000 0.274050
vn 0.947511 0.000000 -0.319723
vn 0.947511 0.000000 -0.319723
vn -0.949590 -0.000000 0.313494
vn 0.944329 0.000000 -0.329003
vn 0.944329 0.000000 -0.329003
vn -0.938405 0.000000 0.345536
vn 0.589538 0.000000 0.807741
vn 0.546437 0.000000 0.837501
vn 0.546437 0.000000 0.837501
vn 0.589538 0.000000 0.807741
vn -0.597583 0.000000 -0.801807
vn -0.544342 0.000000 -0.838863
vn 0.493504 0.000000 0.869743
vn 0.493504 0.000000 0.869743
vn -0.480987 0.000000 -0.876728
vn 0.999999 0.000000 0.001386
vn 0.999999 0.000000 0.001386
vn 0.999999 0.000000 0.001386
vn 0.999999 0.000000 0.001386
vn 0.000000 0.000000 -1.000000
vn 0.000000 0.000000 -1.000000
vn -1.000000 0.000000 0.000000
vn -1.000000 0.000000 0.000000
vn 0.000000 0.000000 1.000000
vn 0.000000 0.000000 1.000000
vn 0.876661 0.000000 0.481109
vn 0.876661 0.000000 0.481109
vn -0.676881 -0.000000 -0.736093
vn -0.866412 -0.000000 -0.499329
vn -0.866412 -0.000000 -0.499329
vn -0.676881 -0.000000 -0.736093
vn 0.494490 0.000000 0.869183
vn 0.494490 0.000000 0.869183
vn -0.530324 -0.000000 -0.847795
vn -0.530324 -0.000000 -0.847795
vn 0.495783 -0.000000 -0.868447
vn 0.495783 -0.000000 -0.868447
vn -0.552865 0.000000 0.833271
vn -0.552865 0.000000 0.833271
vn -0.552865 0.000000 0.833271
vn -0.552865 0.000000 0.833271
vn 0.961716 0.000000 0.274050
vn 0.963497 0.000000 0.267721
vn -0.959919 -0.000000 -0.280278
vn -0.968412 0.000000 -0.249357
vn -0.968412 0.000000 -0.249357
vn -0.959919 -0.000000 -0.280278
vn 0.949590 0.000000 0.313494
vn -0.947511 -0.000000 -0.319723
vn -0.947511 -0.000000 -0.319723
vn 0.938405 0.000000 0.345536
vn -0.944329 0.000000 -0.329003
vn -0.944329 0.000000 -0.329003
vn 0.544342 0.000000 -0.838864
vn 0.597583 0.000000 -0.801807
vn -0.546437 0.000000 0.837501
vn -0.589538 0.000000 0.807741
vn -0.589538 0.000000 0.807741
vn -0.546437 0.000000 0.837501
vn 0.480987 0.000000 -0.876728
vn -0.493504 0.000000 0.869743
vn -0.493504 0.000000 0.869743
vn 1.000000 0.000000 0.000000
vn 1.000000 0.000000 0.000000
vn 0.000000 0.000000 -1.000000
vn 0.000000 0.000000 -1.000000
vn -0.999999 0.000000 0.001386
vn -0.999999 0.000000 0.001386
vn -0.999999 0.000000 0.001386
vn -0.999999 0.000000 0.001386
s 1
g pCube1
usemtl initialShadingGroup
f 1/1/1 2/2/2 8/8/3 7/7/4
f 9/9/5 8/8/3 2/2/2 3/3/6 4/4/7 5/5/8 11/11/9 10/10/10
f 5/5/8 6/6/11 12/12/12 11/11/9
s 2
f 93/127/13 94/128/14 95/129/15 96/130/16
s 3
f 15/15/17 14/14/18 8/8/19 9/9/20 10/10/21 11/11/22 17/17/23 16/16/24
s 4
f 113/131/25 114/132/26 115/133/27 116/134/28
s 2
f 96/130/16 95/129/15 97/135/29 98/136/30
s 3
f 21/21/31 20/20/32 14/14/18 15/15/17 16/16/24 17/17/23 23/23/33 22/22/34
s 4
f 116/134/28 115/133/27 117/137/35 118/138/36
s 2
f 98/136/30 97/135/29 99/139/37 100/140/38
s 3
f 27/27/39 26/26/40 20/20/32 21/21/31 22/22/34 23/23/33 29/29/41 28/28/42
s 4
f 118/138/36 117/137/35 119/141/43 120/142/44
s 2
f 100/140/38 99/139/37 101/143/45 102/144/46
s 3
f 33/33/47 32/32/48 26/26/40 27/27/39 28/28/42 29/29/41 35/35/49 34/34/50
s 4
f 120/142/44 119/141/43 121/145/51 122/146/52
s 2
f 102/144/46 101/143/45 103/147/53 104/148/54
s 3
f 39/39/55 38/38/56 32/32/48 33/33/47 34/34/50 35/35/49 41/41/57 40/40/58
s 4
f 122/146/52 121/145/51 123/149/59 124/150/60
s 2
f 104/148/54 103/147/53 105/151/61 106/152/62
s 3
f 45/45/63 44/44/64 38/38/56 39/39/55 40/40/58 41/41/57 47/47/65 46/46/66
s 4
f 124/150/60 123/149/59 125/153/67 126/154/68
s 2
f 106/152/62 105/151/61 107/155/69 108/156/70
s 3
f 51/51/71 50/50/72 44/44/64 45/45/63 46/46/66 47/47/65 53/53/73 52/52/74
s 4
f 126/154/68 125/153/67 127/157/75 128/158/76
s 5
f 81/115/77 82/116/78 83/117/79 84/118/80
f 86/120/81 83/117/79 82/116/78 85/119/82 87/121/83 89/123/84 90/124/85 88/122/86
f 89/123/84 91/125/87 92/126/88 90/124/85
s 6
f 58/76/89 56/75/90 54/82/91 48/83/92
f 60/77/93 58/76/89 48/83/92 42/84/94
f 62/78/95 60/77/93 42/84/94 36/85/96
f 64/79/97 62/78/95 36/85/96 30/86/98
f 66/80/99 64/79/97 30/86/98 24/87/100
f 68/81/101 66/80/99 24/87/100 18/88/102
f 6/6/103 68/81/101 18/88/102 12/12/104
s 7
f 55/89/105 57/90/106 43/97/107 49/96/108
f 57/90/106 59/91/109 37/98/110 43/97/107
f 59/91/109 61/92/111 31/99/112 37/98/110
f 61/92/111 63/93/113 25/100/114 31/99/112
f 63/93/113 65/94/115 19/101/116 25/100/114
f 65/94/115 67/95/117 13/102/118 19/101/116
f 67/95/117 1/1/119 7/7/120 13/102/118
s 2
f 108/156/70 107/155/69 109/159/121 110/160/122
s 7
f 55/55/123 49/49/108 69/103/124 72/106/125
s 3
f 73/107/126 70/104/127 50/50/72 51/51/71 52/52/74 53/53/73 77/111/128 75/109/129
s 4
f 128/158/76 127/157/75 129/161/130 130/162/131
s 6
f 54/54/91 56/56/132 80/114/133 79/113/134
s 10
f 5/73/135 4/72/136 3/71/137 2/70/138 1/69/139 67/67/140 65/65/141 63/63/142 61/61/143 59/59/144 57/57/145 55/55/146 72/106/147 71/105/148 74/108/149 76/110/150 78/112/151 80/114/152 56/56/153 58/58/154 60/60/155 62/62/156 64/64/157 66/66/158 68/68/159 6/74/160
s 2
f 110/160/122 109/159/121 111/163/161 112/164/162
s 11
f 72/106/163 69/103/164 81/115/165 84/118/166
s 3
f 85/119/167 82/116/168 70/104/127 73/107/126 75/109/129 77/111/128 89/123/169 87/121/170
s 4
f 130/162/131 129/161/130 131/165/171 132/166/172
s 12
f 79/113/173 80/114/174 92/126/175 91/125/176
s 10
f 90/124/177 92/126/178 80/114/152 78/112/151 76/110/150 74/108/149 71/105/148 72/106/147 84/118/179 83/117/180 86/120/181 88/122/182
s 1
f 7/7/4 8/8/3 94/128/183 93/127/184
s 13
f 8/8/185 14/14/186 95/129/187 94/128/188
s 7
f 13/13/118 7/7/120 93/127/189 96/130/190
s 13
f 14/11/186 20/12/191 97/132/192 95/131/187
s 7
f 19/12/116 13/18/118 96/133/193 98/132/194
s off
f 20/17/195 26/11/196 99/131/197 97/134/198
s 7
f 25/14/114 19/20/116 98/135/199 100/129/200
s 14
f 26/19/201 32/13/202 101/130/203 99/136/204
s 7
f 31/18/112 25/24/114 100/137/205 102/133/206
s 14
f 32/23/202 38/17/207 103/134/208 101/138/203
s 7
f 37/20/110 31/26/112 102/139/206 104/135/209
s 14
f 38/25/207 44/19/210 105/136/211 103/140/208
s 7
f 43/24/107 37/30/110 104/141/209 106/137/212
s 15
f 44/29/213 50/23/214 107/138/215 105/142/216
s 7
f 49/26/108 43/32/107 106/143/217 108/139/218
s 15
f 50/31/214 70/25/219 109/140/220 107/144/215
s 7
f 69/30/124 49/36/108 108/145/218 110/141/221
s off
f 70/35/222 82/29/223 111/142/224 109/146/225
s 5
f 82/32/78 81/38/77 112/147/226 111/143/227
s 11
f 81/37/165 69/31/164 110/144/228 112/148/229
s 1
f 11/36/9 12/42/12 114/149/230 113/145/231
s 6
f 12/41/104 18/35/102 115/146/232 114/150/233
s 16
f 17/38/234 11/44/235 113/151/236 116/147/237
s 6
f 18/43/102 24/37/100 117/148/238 115/152/239
s 16
f 23/42/240 17/48/234 116/153/237 118/149/241
s 6
f 24/47/100 30/41/98 119/150/242 117/154/243
s off
f 29/44/244 23/50/245 118/155/246 120/151/247
s 6
f 30/49/98 36/43/96 121/152/248 119/156/249
s 17
f 35/48/250 29/54/251 120/157/252 122/153/253
s 6
f 36/53/96 42/47/94 123/154/254 121/158/248
s 17
f 41/50/255 35/104/250 122/159/253 124/155/256
s 6
f 42/103/94 48/49/92 125/156/257 123/160/254
s 17
f 47/54/258 41/113/255 124/161/256 126/157/259
s 6
f 48/111/92 54/53/91 127/158/260 125/162/261
s 18
f 53/104/262 47/116/263 126/163/264 128/159/265
s 6
f 54/116/91 79/115/134 129/164/266 127/163/260
s 18
f 77/115/267 53/103/262 128/160/265 130/164/268
s 12
f 79/113/173 91/125/176 131/165/269 129/161/270
s 5
f 91/125/87 89/123/84 132/166/271 131/165/272
s off
f 89/123/273 77/111/274 130/162/275 132/166/276
