# This file uses centimeters as units for non-parametric coordinates.

mtllib air_vent.mtl
g default
v -0.449107 -0.441480 0.088541
v 0.449107 -0.441480 0.088541
v -0.500000 -0.391536 0.088541
v -0.471533 -0.414010 0.088541
v 0.471533 -0.414010 0.088541
v 0.500000 -0.391536 0.088541
v -0.500000 0.508577 0.088541
v -0.471533 0.531051 0.088541
v 0.471533 0.531051 0.088541
v 0.500000 0.508577 0.088541
v -0.449107 0.558520 0.088541
v 0.449107 0.558520 0.088541
v -0.449107 0.558520 -0.059446
v 0.449107 0.558520 -0.059446
v -0.500000 0.508577 -0.059446
v -0.449107 0.508577 -0.059446
v 0.449107 0.508577 -0.059446
v 0.500000 0.508577 -0.059446
v -0.500000 -0.391537 -0.059446
v -0.449107 -0.391537 -0.059446
v 0.449107 -0.391537 -0.059446
v 0.500000 -0.391537 -0.059446
v -0.449107 -0.441480 -0.039782
v -0.456587 -0.441518 -0.059446
v -0.449107 -0.416036 -0.059446
v 0.449107 -0.441480 -0.039782
v 0.449107 -0.416036 -0.059446
v 0.458490 -0.441538 -0.059446
v -0.499986 0.519515 0.088541
v -0.460995 0.558507 0.088541
v -0.499986 0.519515 -0.059446
v -0.460995 0.558507 -0.059446
v 0.462534 0.558571 0.088541
v 0.500051 0.521054 0.088541
v 0.500051 0.521054 -0.059446
v 0.462534 0.558571 -0.059446
v -0.456591 -0.441517 0.088541
v -0.500039 -0.398069 0.088541
v -0.500039 -0.398070 -0.059445
v 0.500059 -0.399972 0.088541
v 0.458494 -0.441537 0.088541
v 0.500059 -0.399973 -0.059446
v -0.471533 -0.414010 0.029243
v 0.471533 -0.414010 0.029243
v 0.471533 0.531051 0.029243
v -0.471533 0.531051 0.029243
vt 0.458333 0.000000
vt 0.458333 0.083333
vt 0.541667 0.083333
vt 0.375000 0.166667
vt 0.541667 0.166667
vt 0.541667 0.250000
vt 0.541667 0.500000
vt 0.458333 0.583333
vt 0.541667 0.583333
vt 0.625000 0.583333
vt 0.375000 0.666667
vt 0.125000 0.083333
vt 0.125000 0.166667
vt 0.458333 0.166667
vt 0.458333 0.250000
vt 0.375000 0.542455
vt 0.375000 0.583333
vt 0.625000 0.207545
vt 0.625000 0.542455
vt 0.375000 0.042455
vt 0.416662 0.000000
vt 0.375000 0.083333
vt 0.458333 0.666667
vt 0.416668 0.750000
vt 0.375000 0.707545
vt 0.541667 0.000000
vt 0.583338 0.000000
vt 0.625000 0.666667
vt 0.625000 0.707545
vt 0.583334 0.750000
vt 0.458333 0.783218
vt 0.541667 0.666667
vt 0.375000 0.207545
vt 0.125000 0.207545
vt 0.416662 0.500000
vt 0.458333 0.500000
vt 0.583339 0.250000
vt 0.625000 0.166667
vt 0.875000 0.166667
vt 0.875000 0.207545
vt 0.416662 1.000000
vt 0.458333 1.000000
vt 0.125000 0.042455
vt 0.625000 0.042455
vt 0.875000 0.083333
vt 0.625000 0.083333
vt 0.541667 0.783219
vt 0.583338 1.000000
vt 0.541667 1.000000
vt 0.458333 0.750000
vt 0.541667 0.707545
vt 0.375000 0.250000
vt 0.416665 0.250000
vt 0.375000 0.500000
vt 0.625000 0.250000
vt 0.625000 0.500000
vt 0.583338 0.500000
vt 0.375000 1.000000
vt 0.375000 0.750000
vt 0.625000 0.000000
vt 0.875000 0.000000
vt 0.875000 0.042455
vt 0.458333 0.707545
vt 0.541667 0.750000
vt 0.541667 0.750000
vt 0.458333 0.083333
vt 0.541667 0.083333
vt 0.541667 0.166667
vt 0.458333 0.166667
vn 0.000000 0.000000 1.000000
vn -0.000000 0.000000 1.000000
vn -0.000000 0.000000 1.000000
vn 0.000000 0.000000 1.000000
vn -0.000005 0.000003 1.000000
vn -0.000005 0.000003 1.000000
vn -0.000000 0.000000 1.000000
vn 0.000000 0.000000 1.000000
vn -0.000000 0.000000 1.000000
vn -0.000000 0.000000 1.000000
vn 0.000000 0.000000 1.000000
vn 0.000000 0.000000 1.000000
vn 0.000000 0.000000 1.000000
vn 0.000000 0.000000 1.000000
vn -0.000000 0.000000 1.000000
vn -0.000000 0.000000 1.000000
vn -0.000000 0.000000 1.000000
vn -0.000000 0.000000 1.000000
vn -0.000000 0.000000 1.000000
vn -0.000000 0.000000 1.000000
vn -0.000000 0.000000 1.000000
vn -0.000000 0.000000 1.000000
vn -0.001143 0.999999 0.000000
vn -0.001143 0.999999 0.000000
vn -0.000015 1.000000 0.000000
vn -0.000015 1.000000 0.000000
vn -0.000056 1.000000 0.000000
vn -0.000056 1.000000 0.000000
vn -0.003800 0.999993 0.000000
vn -0.003800 0.999993 0.000000
vn 0.000000 0.000000 -1.000000
vn 0.000000 0.000000 -1.000000
vn 0.000000 0.000000 -1.000000
vn 0.000000 0.000000 -1.000000
vn 0.000000 0.000000 -1.000000
vn 0.000000 0.000000 -1.000000
vn 0.000000 0.000000 -1.000000
vn 0.000000 0.000000 -1.000000
vn -0.000000 -0.000000 -1.000000
vn -0.000000 -0.000000 -1.000000
vn 0.000000 -0.000000 -1.000000
vn 0.000000 -0.000000 -1.000000
vn -0.000000 -0.000000 -1.000000
vn -0.000002 -0.000001 -1.000000
vn -0.000002 -0.000001 -1.000000
vn 0.000000 -0.000000 -1.000000
vn 0.000001 -0.000001 -1.000000
vn 0.000001 -0.000001 -1.000000
vn 0.005024 -0.999987 0.000005
vn 0.005024 -0.999987 0.000005
vn 0.000087 -1.000000 0.000000
vn 0.000045 -1.000000 0.000000
vn -0.000131 -1.000000 0.000000
vn -0.000068 -1.000000 0.000000
vn 0.999976 0.006969 -0.000001
vn 0.999976 0.006969 -0.000001
vn 1.000000 0.000065 -0.000000
vn 1.000000 0.000065 -0.000000
vn 1.000000 -0.000056 0.000000
vn 1.000000 -0.000056 0.000000
vn 0.999992 -0.004089 0.000000
vn 0.999992 -0.004089 0.000000
vn -0.999982 0.005977 -0.000002
vn -0.999982 0.005977 -0.000002
vn -1.000000 0.000043 -0.000000
vn -1.000000 0.000043 -0.000000
vn -1.000000 0.000015 0.000000
vn -1.000000 0.000015 0.000000
vn -0.999999 0.001241 0.000000
vn -0.999999 0.001241 0.000000
vn -0.006133 -0.999981 0.000004
vn -0.006133 -0.999981 0.000004
vn 0.000000 0.000000 -1.000000
vn 0.000000 0.000000 -1.000000
vn 0.000005 0.000004 1.000000
vn 0.000005 0.000004 1.000000
vn 0.000000 -0.611486 -0.791256
vn 0.000000 -0.611486 -0.791256
vn 0.000000 -0.611486 -0.791256
vn 0.000000 -0.611486 -0.791256
vn -0.707107 0.707107 0.000000
vn -0.707107 0.707107 0.000000
vn -0.707107 0.707107 0.000000
vn -0.707107 0.707107 0.000000
vn 0.707107 0.707107 0.000000
vn 0.707107 0.707107 0.000000
vn 0.707107 0.707107 0.000000
vn 0.707107 0.707107 0.000000
vn -0.707089 -0.707125 -0.000006
vn -0.707089 -0.707125 -0.000006
vn -0.707089 -0.707125 -0.000006
vn -0.707089 -0.707125 -0.000006
vn 0.707089 -0.707124 -0.000006
vn 0.707089 -0.707124 -0.000006
vn 0.707089 -0.707124 -0.000006
vn 0.707089 -0.707125 -0.000006
vn 0.901509 -0.264626 -0.342425
vn 0.901509 -0.264626 -0.342425
vn 0.901509 -0.264626 -0.342425
vn -0.856849 -0.315264 -0.407944
vn -0.856849 -0.315264 -0.407944
vn -0.856849 -0.315264 -0.407944
vn 0.000000 1.000000 0.000000
vn 0.000000 1.000000 0.000000
vn 0.000000 1.000000 0.000000
vn 0.000000 1.000000 0.000000
vn -1.000000 0.000000 0.000000
vn -1.000000 0.000000 0.000000
vn -1.000000 0.000000 0.000000
vn -1.000000 0.000000 0.000000
vn 0.000000 -1.000000 0.000000
vn 0.000000 -1.000000 0.000000
vn 0.000000 -1.000000 0.000000
vn 0.000000 -1.000000 0.000000
vn 1.000000 0.000000 0.000000
vn 1.000000 0.000000 0.000000
vn 1.000000 0.000000 0.000000
vn 1.000000 0.000000 0.000000
s 1
g pCube1 group1
usemtl initialShadingGroup
f 1/1/1 2/26/2 5/3/3 4/2/4
f 2/26/2 41/27/5 40/44/6 6/46/7 5/3/3
f 3/22/8 4/2/4 8/14/9 7/4/10
s off
f 43/66/11 44/67/12 45/68/13 46/69/14
s 1
f 5/3/3 6/46/7 10/38/15 9/5/16
f 7/4/10 8/14/9 11/15/17 30/53/18 29/33/19
f 8/14/9 9/5/16 12/6/20 11/15/17
f 9/5/16 10/38/15 34/18/21 33/37/22 12/6/20
s 2
f 32/35/23 30/53/24 11/15/25 13/36/26
f 11/15/25 12/6/27 14/7/28 13/36/26
f 12/6/27 33/37/29 36/57/30 14/7/28
s 3
f 13/36/31 14/7/32 17/9/33 16/8/34
f 14/7/32 36/57/35 35/19/36 18/10/37 17/9/33
f 15/17/38 16/8/34 20/23/39 19/11/40
f 16/8/34 17/9/33 21/32/41 20/23/39
f 17/9/33 18/10/37 22/28/42 21/32/41
f 19/11/40 20/23/39 25/63/43 24/24/44 39/25/45
f 20/23/39 21/32/41 27/51/46 25/63/43
f 21/32/41 22/28/42 42/29/47 28/30/48 27/51/46
s 4
f 37/41/49 24/24/50 23/31/51 1/42/52
f 23/31/51 26/47/53 2/49/54 1/42/52
s 5
f 40/44/55 42/62/56 22/45/57 6/46/58
f 6/46/58 22/45/57 18/39/59 10/38/60
f 10/38/60 18/39/59 35/40/61 34/18/62
s 6
f 39/43/63 38/20/64 3/22/65 19/12/66
f 19/12/66 3/22/65 7/4/67 15/13/68
f 15/13/68 7/4/67 29/33/69 31/34/70
s 4
f 26/47/53 28/30/71 41/48/72 2/49/54
s 3
f 31/16/73 32/35/74 13/36/31 16/8/34 15/17/38
s 1
f 38/20/75 37/21/76 1/1/1 4/2/4 3/22/8
s off
f 23/50/77 25/63/78 27/51/79 26/64/80
f 29/52/81 30/53/82 32/35/83 31/54/84
f 33/37/85 34/55/86 35/56/87 36/57/88
f 37/41/89 38/58/90 39/59/91 24/24/92
f 40/44/93 41/60/94 28/61/95 42/62/96
f 23/50/97 24/24/98 25/63/99
f 26/64/100 27/51/101 28/65/102
f 4/2/103 5/3/104 44/67/105 43/66/106
f 5/3/107 9/5/108 45/68/109 44/67/110
f 9/5/111 8/14/112 46/69/113 45/68/114
f 8/14/115 4/2/116 43/66/117 46/69/118
g default
v -0.469150 0.427336 0.117138
v 0.469150 0.427336 0.117138
v -0.469150 0.543191 0.014719
v 0.469150 0.543191 0.014719
v -0.469150 0.532754 0.002913
v 0.469150 0.532754 0.002913
v -0.469150 0.416899 0.105332
v 0.469150 0.416899 0.105332
vt 0.375000 0.000000
vt 0.625000 0.000000
vt 0.375000 0.250000
vt 0.625000 0.250000
vt 0.375000 0.500000
vt 0.625000 0.500000
vt 0.375000 0.750000
vt 0.625000 0.750000
vt 0.375000 1.000000
vt 0.625000 1.000000
vt 0.875000 0.000000
vt 0.875000 0.250000
vt 0.125000 0.000000
vt 0.125000 0.250000
vn 0.000000 0.662323 0.749219
vn 0.000000 0.662323 0.749219
vn 0.000000 0.662323 0.749219
vn 0.000000 0.662323 0.749219
vn 0.000000 0.749219 -0.662323
vn 0.000000 0.749219 -0.662323
vn 0.000000 0.749219 -0.662323
vn 0.000000 0.749219 -0.662323
vn 0.000000 -0.662323 -0.749219
vn 0.000000 -0.662323 -0.749219
vn 0.000000 -0.662323 -0.749219
vn 0.000000 -0.662323 -0.749219
vn 0.000000 -0.749219 0.662323
vn 0.000000 -0.749219 0.662323
vn 0.000000 -0.749219 0.662323
vn 0.000000 -0.749219 0.662323
vn 1.000000 0.000000 0.000000
vn 1.000000 0.000000 0.000000
vn 1.000000 0.000000 0.000000
vn 1.000000 0.000000 0.000000
vn -1.000000 0.000000 0.000000
vn -1.000000 0.000000 0.000000
vn -1.000000 0.000000 0.000000
vn -1.000000 0.000000 0.000000
s off
g group1 pCube2 pCube4 pCube6 pCube8 pCube10 pCube12 pCube14 pCube16 pCube18
usemtl initialShadingGroup
f 47/70/119 48/71/120 50/73/121 49/72/122
f 49/72/123 50/73/124 52/75/125 51/74/126
f 51/74/127 52/75/128 54/77/129 53/76/130
f 53/76/131 54/77/132 48/79/133 47/78/134
f 48/71/135 54/80/136 52/81/137 50/73/138
f 53/82/139 47/70/140 49/72/141 51/83/142
g default
v -0.469150 0.326492 0.115163
v 0.469150 0.326492 0.115163
v -0.469150 0.443317 0.013851
v 0.469150 0.443317 0.013851
v -0.469150 0.432993 0.001946
v 0.469150 0.432993 0.001946
v -0.469150 0.316168 0.103258
v 0.469150 0.316168 0.103258
vt 0.375000 0.000000
vt 0.625000 0.000000
vt 0.375000 0.250000
vt 0.625000 0.250000
vt 0.375000 0.500000
vt 0.625000 0.500000
vt 0.375000 0.750000
vt 0.625000 0.750000
vt 0.375000 1.000000
vt 0.625000 1.000000
vt 0.875000 0.000000
vt 0.875000 0.250000
vt 0.125000 0.000000
vt 0.125000 0.250000
vn 0.000000 0.655166 0.755485
vn 0.000000 0.655166 0.755485
vn 0.000000 0.655166 0.755485
vn 0.000000 0.655166 0.755485
vn 0.000000 0.755485 -0.655167
vn 0.000000 0.755485 -0.655167
vn 0.000000 0.755485 -0.655167
vn 0.000000 0.755485 -0.655167
vn 0.000000 -0.655166 -0.755485
vn 0.000000 -0.655166 -0.755485
vn 0.000000 -0.655166 -0.755485
vn 0.000000 -0.655166 -0.755485
vn 0.000000 -0.755485 0.655167
vn 0.000000 -0.755485 0.655167
vn 0.000000 -0.755485 0.655167
vn 0.000000 -0.755485 0.655167
vn 1.000000 0.000000 0.000000
vn 1.000000 0.000000 0.000000
vn 1.000000 0.000000 0.000000
vn 1.000000 0.000000 0.000000
vn -1.000000 0.000000 0.000000
vn -1.000000 0.000000 0.000000
vn -1.000000 0.000000 0.000000
vn -1.000000 0.000000 0.000000
s off
g group1 pCube2 pCube4 pCube6 pCube8 pCube10 pCube12 pCube14 pCube16 pCube18
usemtl initialShadingGroup
f 55/84/143 56/85/144 58/87/145 57/86/146
f 57/86/147 58/87/148 60/89/149 59/88/150
f 59/88/151 60/89/152 62/91/153 61/90/154
f 61/90/155 62/91/156 56/93/157 55/92/158
f 56/85/159 62/94/160 60/95/161 58/87/162
f 61/96/163 55/84/164 57/86/165 59/97/166
g default
v -0.469150 0.226492 0.115163
v 0.469150 0.226492 0.115163
v -0.469150 0.343317 0.013851
v 0.469150 0.343317 0.013851
v -0.469150 0.332993 0.001946
v 0.469150 0.332993 0.001946
v -0.469150 0.216168 0.103258
v 0.469150 0.216168 0.103258
vt 0.375000 0.000000
vt 0.625000 0.000000
vt 0.375000 0.250000
vt 0.625000 0.250000
vt 0.375000 0.500000
vt 0.625000 0.500000
vt 0.375000 0.750000
vt 0.625000 0.750000
vt 0.375000 1.000000
vt 0.625000 1.000000
vt 0.875000 0.000000
vt 0.875000 0.250000
vt 0.125000 0.000000
vt 0.125000 0.250000
vn 0.000000 0.655166 0.755485
vn 0.000000 0.655166 0.755485
vn 0.000000 0.655166 0.755485
vn 0.000000 0.655166 0.755485
vn 0.000000 0.755485 -0.655167
vn 0.000000 0.755485 -0.655167
vn 0.000000 0.755485 -0.655167
vn 0.000000 0.755485 -0.655167
vn 0.000000 -0.655166 -0.755485
vn 0.000000 -0.655166 -0.755485
vn 0.000000 -0.655166 -0.755485
vn 0.000000 -0.655166 -0.755485
vn 0.000000 -0.755485 0.655167
vn 0.000000 -0.755485 0.655167
vn 0.000000 -0.755485 0.655167
vn 0.000000 -0.755485 0.655167
vn 1.000000 0.000000 0.000000
vn 1.000000 0.000000 0.000000
vn 1.000000 0.000000 0.000000
vn 1.000000 0.000000 0.000000
vn -1.000000 0.000000 0.000000
vn -1.000000 0.000000 0.000000
vn -1.000000 0.000000 0.000000
vn -1.000000 0.000000 0.000000
s off
g group1 pCube2 pCube4 pCube6 pCube8 pCube10 pCube12 pCube14 pCube16 pCube18
usemtl initialShadingGroup
f 63/98/167 64/99/168 66/101/169 65/100/170
f 65/100/171 66/101/172 68/103/173 67/102/174
f 67/102/175 68/103/176 70/105/177 69/104/178
f 69/104/179 70/105/180 64/107/181 63/106/182
f 64/99/183 70/108/184 68/109/185 66/101/186
f 69/110/187 63/98/188 65/100/189 67/111/190
g default
v -0.469150 0.126492 0.115163
v 0.469150 0.126492 0.115163
v -0.469150 0.243317 0.013851
v 0.469150 0.243317 0.013851
v -0.469150 0.232993 0.001946
v 0.469150 0.232993 0.001946
v -0.469150 0.116168 0.103258
v 0.469150 0.116168 0.103258
vt 0.375000 0.000000
vt 0.625000 0.000000
vt 0.375000 0.250000
vt 0.625000 0.250000
vt 0.375000 0.500000
vt 0.625000 0.500000
vt 0.375000 0.750000
vt 0.625000 0.750000
vt 0.375000 1.000000
vt 0.625000 1.000000
vt 0.875000 0.000000
vt 0.875000 0.250000
vt 0.125000 0.000000
vt 0.125000 0.250000
vn 0.000000 0.655166 0.755485
vn 0.000000 0.655166 0.755485
vn 0.000000 0.655166 0.755485
vn 0.000000 0.655166 0.755485
vn 0.000000 0.755485 -0.655167
vn 0.000000 0.755485 -0.655167
vn 0.000000 0.755485 -0.655167
vn 0.000000 0.755485 -0.655167
vn 0.000000 -0.655166 -0.755485
vn 0.000000 -0.655166 -0.755485
vn 0.000000 -0.655166 -0.755485
vn 0.000000 -0.655166 -0.755485
vn 0.000000 -0.755485 0.655167
vn 0.000000 -0.755485 0.655167
vn 0.000000 -0.755485 0.655167
vn 0.000000 -0.755485 0.655167
vn 1.000000 0.000000 0.000000
vn 1.000000 0.000000 0.000000
vn 1.000000 0.000000 0.000000
vn 1.000000 0.000000 0.000000
vn -1.000000 0.000000 0.000000
vn -1.000000 0.000000 0.000000
vn -1.000000 0.000000 0.000000
vn -1.000000 0.000000 0.000000
s off
g group1 pCube2 pCube4 pCube6 pCube8 pCube10 pCube12 pCube14 pCube16 pCube18
usemtl initialShadingGroup
f 71/112/191 72/113/192 74/115/193 73/114/194
f 73/114/195 74/115/196 76/117/197 75/116/198
f 75/116/199 76/117/200 78/119/201 77/118/202
f 77/118/203 78/119/204 72/121/205 71/120/206
f 72/113/207 78/122/208 76/123/209 74/115/210
f 77/124/211 71/112/212 73/114/213 75/125/214
g default
v -0.469150 0.026492 0.115163
v 0.469150 0.026492 0.115163
v -0.469150 0.143317 0.013851
v 0.469150 0.143317 0.013851
v -0.469150 0.132993 0.001946
v 0.469150 0.132993 0.001946
v -0.469150 0.016168 0.103258
v 0.469150 0.016168 0.103258
vt 0.375000 0.000000
vt 0.625000 0.000000
vt 0.375000 0.250000
vt 0.625000 0.250000
vt 0.375000 0.500000
vt 0.625000 0.500000
vt 0.375000 0.750000
vt 0.625000 0.750000
vt 0.375000 1.000000
vt 0.625000 1.000000
vt 0.875000 0.000000
vt 0.875000 0.250000
vt 0.125000 0.000000
vt 0.125000 0.250000
vn 0.000000 0.655166 0.755485
vn 0.000000 0.655166 0.755485
vn 0.000000 0.655166 0.755485
vn 0.000000 0.655166 0.755485
vn 0.000000 0.755485 -0.655167
vn 0.000000 0.755485 -0.655167
vn 0.000000 0.755485 -0.655167
vn 0.000000 0.755485 -0.655167
vn 0.000000 -0.655166 -0.755485
vn 0.000000 -0.655166 -0.755485
vn 0.000000 -0.655166 -0.755485
vn 0.000000 -0.655166 -0.755485
vn 0.000000 -0.755485 0.655167
vn 0.000000 -0.755485 0.655167
vn 0.000000 -0.755485 0.655167
vn 0.000000 -0.755485 0.655167
vn 1.000000 0.000000 0.000000
vn 1.000000 0.000000 0.000000
vn 1.000000 0.000000 0.000000
vn 1.000000 0.000000 0.000000
vn -1.000000 0.000000 0.000000
vn -1.000000 0.000000 0.000000
vn -1.000000 0.000000 0.000000
vn -1.000000 0.000000 0.000000
s off
g group1 pCube2 pCube4 pCube6 pCube8 pCube10 pCube12 pCube14 pCube16 pCube18
usemtl initialShadingGroup
f 79/126/215 80/127/216 82/129/217 81/128/218
f 81/128/219 82/129/220 84/131/221 83/130/222
f 83/130/223 84/131/224 86/133/225 85/132/226
f 85/132/227 86/133/228 80/135/229 79/134/230
f 80/127/231 86/136/232 84/137/233 82/129/234
f 85/138/235 79/126/236 81/128/237 83/139/238
g default
v -0.469150 -0.073508 0.115163
v 0.469150 -0.073508 0.115163
v -0.469150 0.043317 0.013851
v 0.469150 0.043317 0.013851
v -0.469150 0.032993 0.001946
v 0.469150 0.032993 0.001946
v -0.469150 -0.083832 0.103258
v 0.469150 -0.083832 0.103258
vt 0.375000 0.000000
vt 0.625000 0.000000
vt 0.375000 0.250000
vt 0.625000 0.250000
vt 0.375000 0.500000
vt 0.625000 0.500000
vt 0.375000 0.750000
vt 0.625000 0.750000
vt 0.375000 1.000000
vt 0.625000 1.000000
vt 0.875000 0.000000
vt 0.875000 0.250000
vt 0.125000 0.000000
vt 0.125000 0.250000
vn 0.000000 0.655166 0.755485
vn 0.000000 0.655166 0.755485
vn 0.000000 0.655166 0.755485
vn 0.000000 0.655166 0.755485
vn 0.000000 0.755485 -0.655167
vn 0.000000 0.755485 -0.655167
vn 0.000000 0.755485 -0.655167
vn 0.000000 0.755485 -0.655167
vn 0.000000 -0.655166 -0.755485
vn 0.000000 -0.655166 -0.755485
vn 0.000000 -0.655166 -0.755485
vn 0.000000 -0.655166 -0.755485
vn 0.000000 -0.755485 0.655167
vn 0.000000 -0.755485 0.655167
vn 0.000000 -0.755485 0.655167
vn 0.000000 -0.755485 0.655167
vn 1.000000 0.000000 0.000000
vn 1.000000 0.000000 0.000000
vn 1.000000 0.000000 0.000000
vn 1.000000 0.000000 0.000000
vn -1.000000 0.000000 0.000000
vn -1.000000 0.000000 0.000000
vn -1.000000 0.000000 0.000000
vn -1.000000 0.000000 0.000000
s off
g group1 pCube2 pCube4 pCube6 pCube8 pCube10 pCube12 pCube14 pCube16 pCube18
usemtl initialShadingGroup
f 87/140/239 88/141/240 90/143/241 89/142/242
f 89/142/243 90/143/244 92/145/245 91/144/246
f 91/144/247 92/145/248 94/147/249 93/146/250
f 93/146/251 94/147/252 88/149/253 87/148/254
f 88/141/255 94/150/256 92/151/257 90/143/258
f 93/152/259 87/140/260 89/142/261 91/153/262
g default
v -0.469150 -0.173508 0.115163
v 0.469150 -0.173508 0.115163
v -0.469150 -0.056683 0.013851
v 0.469150 -0.056683 0.013851
v -0.469150 -0.067007 0.001946
v 0.469150 -0.067007 0.001946
v -0.469150 -0.183832 0.103258
v 0.469150 -0.183832 0.103258
vt 0.375000 0.000000
vt 0.625000 0.000000
vt 0.375000 0.250000
vt 0.625000 0.250000
vt 0.375000 0.500000
vt 0.625000 0.500000
vt 0.375000 0.750000
vt 0.625000 0.750000
vt 0.375000 1.000000
vt 0.625000 1.000000
vt 0.875000 0.000000
vt 0.875000 0.250000
vt 0.125000 0.000000
vt 0.125000 0.250000
vn 0.000000 0.655166 0.755485
vn 0.000000 0.655166 0.755485
vn 0.000000 0.655166 0.755485
vn 0.000000 0.655166 0.755485
vn 0.000000 0.755485 -0.655167
vn 0.000000 0.755485 -0.655167
vn 0.000000 0.755485 -0.655167
vn 0.000000 0.755485 -0.655167
vn 0.000000 -0.655166 -0.755485
vn 0.000000 -0.655166 -0.755485
vn 0.000000 -0.655166 -0.755485
vn 0.000000 -0.655166 -0.755485
vn 0.000000 -0.755485 0.655167
vn 0.000000 -0.755485 0.655167
vn 0.000000 -0.755485 0.655167
vn 0.000000 -0.755485 0.655167
vn 1.000000 0.000000 0.000000
vn 1.000000 0.000000 0.000000
vn 1.000000 0.000000 0.000000
vn 1.000000 0.000000 0.000000
vn -1.000000 0.000000 0.000000
vn -1.000000 0.000000 0.000000
vn -1.000000 0.000000 0.000000
vn -1.000000 0.000000 0.000000
s off
g group1 pCube2 pCube4 pCube6 pCube8 pCube10 pCube12 pCube14 pCube16 pCube18
usemtl initialShadingGroup
f 95/154/263 96/155/264 98/157/265 97/156/266
f 97/156/267 98/157/268 100/159/269 99/158/270
f 99/158/271 100/159/272 102/161/273 101/160/274
f 101/160/275 102/161/276 96/163/277 95/162/278
f 96/155/279 102/164/280 100/165/281 98/157/282
f 101/166/283 95/154/284 97/156/285 99/167/286
g default
v -0.469150 -0.273508 0.115163
v 0.469150 -0.273508 0.115163
v -0.469150 -0.156683 0.013851
v 0.469150 -0.156683 0.013851
v -0.469150 -0.167007 0.001946
v 0.469150 -0.167007 0.001946
v -0.469150 -0.283832 0.103258
v 0.469150 -0.283832 0.103258
vt 0.375000 0.000000
vt 0.625000 0.000000
vt 0.375000 0.250000
vt 0.625000 0.250000
vt 0.375000 0.500000
vt 0.625000 0.500000
vt 0.375000 0.750000
vt 0.625000 0.750000
vt 0.375000 1.000000
vt 0.625000 1.000000
vt 0.875000 0.000000
vt 0.875000 0.250000
vt 0.125000 0.000000
vt 0.125000 0.250000
vn 0.000000 0.655166 0.755485
vn 0.000000 0.655166 0.755485
vn 0.000000 0.655166 0.755485
vn 0.000000 0.655166 0.755485
vn 0.000000 0.755485 -0.655167
vn 0.000000 0.755485 -0.655167
vn 0.000000 0.755485 -0.655167
vn 0.000000 0.755485 -0.655167
vn 0.000000 -0.655166 -0.755485
vn 0.000000 -0.655166 -0.755485
vn 0.000000 -0.655166 -0.755485
vn 0.000000 -0.655166 -0.755485
vn 0.000000 -0.755485 0.655167
vn 0.000000 -0.755485 0.655167
vn 0.000000 -0.755485 0.655167
vn 0.000000 -0.755485 0.655167
vn 1.000000 0.000000 0.000000
vn 1.000000 0.000000 0.000000
vn 1.000000 0.000000 0.000000
vn 1.000000 0.000000 0.000000
vn -1.000000 0.000000 0.000000
vn -1.000000 0.000000 0.000000
vn -1.000000 0.000000 0.000000
vn -1.000000 0.000000 0.000000
s off
g group1 pCube2 pCube4 pCube6 pCube8 pCube10 pCube12 pCube14 pCube16 pCube18
usemtl initialShadingGroup
f 103/168/287 104/169/288 106/171/289 105/170/290
f 105/170/291 106/171/292 108/173/293 107/172/294
f 107/172/295 108/173/296 110/175/297 109/174/298
f 109/174/299 110/175/300 104/177/301 103/176/302
f 104/169/303 110/178/304 108/179/305 106/171/306
f 109/180/307 103/168/308 105/170/309 107/181/310
g default
v -0.469150 -0.373508 0.115163
v 0.469150 -0.373508 0.115163
v -0.469150 -0.256683 0.013851
v 0.469150 -0.256683 0.013851
v -0.469150 -0.267007 0.001946
v 0.469150 -0.267007 0.001946
v -0.469150 -0.383832 0.103258
v 0.469150 -0.383832 0.103258
vt 0.375000 0.000000
vt 0.625000 0.000000
vt 0.375000 0.250000
vt 0.625000 0.250000
vt 0.375000 0.500000
vt 0.625000 0.500000
vt 0.375000 0.750000
vt 0.625000 0.750000
vt 0.375000 1.000000
vt 0.625000 1.000000
vt 0.875000 0.000000
vt 0.875000 0.250000
vt 0.125000 0.000000
vt 0.125000 0.250000
vn 0.000000 0.655166 0.755485
vn 0.000000 0.655166 0.755485
vn 0.000000 0.655166 0.755485
vn 0.000000 0.655166 0.755485
vn 0.000000 0.755485 -0.655167
vn 0.000000 0.755485 -0.655167
vn 0.000000 0.755485 -0.655167
vn 0.000000 0.755485 -0.655167
vn 0.000000 -0.655166 -0.755485
vn 0.000000 -0.655166 -0.755485
vn 0.000000 -0.655166 -0.755485
vn 0.000000 -0.655166 -0.755485
vn 0.000000 -0.755485 0.655167
vn 0.000000 -0.755485 0.655167
vn 0.000000 -0.755485 0.655167
vn 0.000000 -0.755485 0.655167
vn 1.000000 0.000000 0.000000
vn 1.000000 0.000000 0.000000
vn 1.000000 0.000000 0.000000
vn 1.000000 0.000000 0.000000
vn -1.000000 0.000000 0.000000
vn -1.000000 0.000000 0.000000
vn -1.000000 0.000000 0.000000
vn -1.000000 0.000000 0.000000
s off
g group1 pCube2 pCube4 pCube6 pCube8 pCube10 pCube12 pCube14 pCube16 pCube18
usemtl initialShadingGroup
f 111/182/311 112/183/312 114/185/313 113/184/314
f 113/184/315 114/185/316 116/187/317 115/186/318
f 115/186/319 116/187/320 118/189/321 117/188/322
f 117/188/323 118/189/324 112/191/325 111/190/326
f 112/183/327 118/192/328 116/193/329 114/185/330
f 117/194/331 111/182/332 113/184/333 115/195/334
