# This file uses centimeters as units for non-parametric coordinates.

mtllib waterfall.mtl
g default
v 0.500000 0.500261 -2.500261
v -0.500000 0.500261 -2.500261
v 0.500000 0.500261 -1.875261
v -0.500000 0.500261 -1.875261
v 0.500000 0.500261 -1.250261
v -0.500000 0.500261 -1.250261
v 0.500000 0.500261 -0.625261
v -0.500000 0.500261 -0.625261
v 0.500000 0.500261 -0.000261
v -0.500000 0.500261 -0.000261
v 0.500000 0.500261 0.624739
v -0.500000 0.500261 0.624739
v 0.500000 0.500261 1.249739
v -0.500000 0.500261 1.249739
v 0.500000 0.500261 1.874739
v -0.500000 0.500261 1.874739
v 0.500000 0.500261 2.499739
v -0.500000 0.500261 2.499739
vt 0.598374 -0.002067
vt 0.799896 -0.002067
vt 0.799896 0.004442
vt 0.598374 0.004442
vt 0.799896 0.020935
vt 0.598374 0.020935
vt 0.799896 0.050552
vt 0.598374 0.050552
vt 0.799896 0.091425
vt 0.598374 0.091425
vt 0.799896 0.174285
vt 0.598374 0.174285
vt 0.799896 0.296302
vt 0.598374 0.296302
vt 0.799896 0.519093
vt 0.598374 0.519093
vt 0.799896 1.001245
vt 0.598374 1.001245
vn 0.000000 1.000000 -0.000000
vn 0.000000 1.000000 -0.000000
vn 0.000000 1.000000 -0.000000
vn 0.000000 1.000000 -0.000000
vn 0.000000 1.000000 -0.000000
vn 0.000000 1.000000 -0.000000
vn 0.000000 1.000000 -0.000000
vn 0.000000 1.000000 -0.000000
vn 0.000000 1.000000 -0.000000
vn 0.000000 1.000000 -0.000000
vn 0.000000 1.000000 -0.000000
vn 0.000000 1.000000 -0.000000
vn 0.000000 1.000000 -0.000000
vn 0.000000 1.000000 -0.000000
vn 0.000000 1.000000 -0.000000
vn 0.000000 1.000000 -0.000000
vn 0.000000 1.000000 -0.000000
vn 0.000000 1.000000 -0.000000
vn 0.000000 1.000000 -0.000000
vn 0.000000 1.000000 -0.000000
vn 0.000000 1.000000 -0.000000
vn 0.000000 1.000000 -0.000000
vn 0.000000 1.000000 -0.000000
vn 0.000000 1.000000 -0.000000
vn 0.000000 1.000000 -0.000000
vn 0.000000 1.000000 -0.000000
vn 0.000000 1.000000 -0.000000
vn 0.000000 1.000000 -0.000000
vn 0.000000 1.000000 -0.000000
vn 0.000000 1.000000 -0.000000
vn 0.000000 1.000000 -0.000000
vn 0.000000 1.000000 -0.000000
s off
g waterfall:pCube1
usemtl initialShadingGroup
f 1/1/1 2/2/2 4/3/3 3/4/4
f 3/4/5 4/3/6 6/5/7 5/6/8
f 5/6/9 6/5/10 8/7/11 7/8/12
f 7/8/13 8/7/14 10/9/15 9/10/16
f 9/10/17 10/9/18 12/11/19 11/12/20
f 11/12/21 12/11/22 14/13/23 13/14/24
f 13/14/25 14/13/26 16/15/27 15/16/28
f 15/16/29 16/15/30 18/17/31 17/18/32
