# This file uses centimeters as units for non-parametric coordinates.

mtllib waterfallCurve.mtl
g default
v -0.500000 -0.000000 -0.500000
v -0.500000 -0.000000 0.500000
v -0.448443 0.180069 -0.500000
v -0.448443 0.180069 0.500000
v -0.334413 0.323389 -0.500000
v -0.334413 0.323389 0.500000
v -0.179960 0.440984 -0.500000
v -0.179960 0.440984 0.500000
v -0.000378 0.501573 -0.500000
v -0.000378 0.501573 0.500000
vt 0.000000 0.000000
vt 1.000000 0.000000
vt 0.000000 0.250000
vt 1.000000 0.250000
vt 0.000000 0.500000
vt 1.000000 0.500000
vt 0.000000 0.750000
vt 1.000000 0.750000
vt 0.000000 1.000000
vt 1.000000 1.000000
vn -0.961370 0.275258 -0.000000
vn -0.961370 0.275258 -0.000000
vn -0.890101 0.455764 -0.000000
vn -0.890101 0.455764 -0.000000
vn -0.696928 0.717141 -0.000000
vn -0.696928 0.717141 -0.000000
vn -0.470654 0.882318 -0.000000
vn -0.470654 0.882318 -0.000000
vn -0.319681 0.947525 -0.000000
vn -0.319681 0.947525 -0.000000
s 1
g pPlane2
usemtl initialShadingGroup
f 1/1/1 2/2/2 4/4/3 3/3/4
f 3/3/4 4/4/3 6/6/5 5/5/6
f 5/5/6 6/6/5 8/8/7 7/7/8
f 7/7/8 8/8/7 10/10/9 9/9/10
